<mxfile host="Electron" agent="Mozilla/5.0 (Macintosh; Intel Mac OS X 10_15_7) AppleWebKit/537.36 (KHTML, like Gecko) draw.io/26.0.15 Chrome/132.0.6834.196 Electron/34.2.0 Safari/537.36" version="26.0.15">
  <diagram name="Page-1" id="uMwKVFqljbsmnkcIIOcC">
    <mxGraphModel dx="895" dy="662" grid="1" gridSize="10" guides="1" tooltips="1" connect="1" arrows="1" fold="1" page="1" pageScale="1" pageWidth="1169" pageHeight="827" math="0" shadow="0">
      <root>
        <mxCell id="0" />
        <mxCell id="1" parent="0" />
        <mxCell id="fgf1sogdTOTN0wDzaj9G-73" value="" style="sketch=0;points=[[0,0,0],[0.25,0,0],[0.5,0,0],[0.75,0,0],[1,0,0],[1,0.25,0],[1,0.5,0],[1,0.75,0],[1,1,0],[0.75,1,0],[0.5,1,0],[0.25,1,0],[0,1,0],[0,0.75,0],[0,0.5,0],[0,0.25,0]];rounded=1;absoluteArcSize=1;arcSize=2;html=1;strokeColor=#3333FF;gradientColor=none;shadow=0;dashed=1;fontSize=12;fontColor=#9E9E9E;align=left;verticalAlign=top;spacing=10;spacingTop=-4;fillColor=#FFFFFF;labelBackgroundColor=default;" parent="1" vertex="1">
          <mxGeometry x="390" y="540" width="180" height="230" as="geometry" />
        </mxCell>
        <mxCell id="fgf1sogdTOTN0wDzaj9G-14" value="             File Notifier" style="strokeColor=#000000;shadow=0;strokeWidth=1;rounded=1;absoluteArcSize=1;arcSize=2;fontSize=11;" parent="1" vertex="1">
          <mxGeometry x="409.96000000000004" y="550" width="140" height="60" as="geometry" />
        </mxCell>
        <mxCell id="fgf1sogdTOTN0wDzaj9G-21" value="" style="strokeColor=#000000;shadow=0;strokeWidth=1;rounded=1;absoluteArcSize=1;arcSize=2;fontSize=11;container=0;" parent="1" vertex="1">
          <mxGeometry x="40" y="413" width="760" height="87" as="geometry" />
        </mxCell>
        <mxCell id="fgf1sogdTOTN0wDzaj9G-24" value="/queued" style="strokeColor=#000000;shadow=0;strokeWidth=1;rounded=1;absoluteArcSize=1;arcSize=2;fontSize=10;fontColor=#000000;labelBackgroundColor=default;" parent="1" vertex="1">
          <mxGeometry x="434.96" y="441.5" width="90" height="30" as="geometry" />
        </mxCell>
        <mxCell id="fgf1sogdTOTN0wDzaj9G-29" value="/processed" style="strokeColor=#000000;shadow=0;strokeWidth=1;rounded=1;absoluteArcSize=1;arcSize=2;fontSize=10;" parent="1" vertex="1">
          <mxGeometry x="549.96" y="441.5" width="90" height="30" as="geometry" />
        </mxCell>
        <mxCell id="fgf1sogdTOTN0wDzaj9G-31" value="/error" style="strokeColor=#000000;shadow=0;strokeWidth=1;rounded=1;absoluteArcSize=1;arcSize=2;fontSize=10;" parent="1" vertex="1">
          <mxGeometry x="670" y="441.5" width="90" height="30" as="geometry" />
        </mxCell>
        <mxCell id="fgf1sogdTOTN0wDzaj9G-39" value="/status" style="strokeColor=#000000;shadow=0;strokeWidth=1;rounded=1;absoluteArcSize=1;arcSize=2;fontSize=10;" parent="1" vertex="1">
          <mxGeometry x="319.96" y="441.5" width="90" height="30" as="geometry" />
        </mxCell>
        <mxCell id="fgf1sogdTOTN0wDzaj9G-58" value="" style="edgeStyle=orthogonalEdgeStyle;fontSize=12;html=1;endArrow=blockThin;endFill=1;rounded=0;strokeWidth=2;endSize=4;startSize=4;dashed=0;strokeColor=#000000;fontColor=#000000;exitX=1;exitY=0.5;exitDx=0;exitDy=0;" parent="1" source="4SqLzdmS7a_BjOeYIGlZ-48" edge="1">
          <mxGeometry width="100" relative="1" as="geometry">
            <mxPoint x="87" y="328.56999999999994" as="sourcePoint" />
            <mxPoint x="150" y="328.66666666666674" as="targetPoint" />
          </mxGeometry>
        </mxCell>
        <mxCell id="fgf1sogdTOTN0wDzaj9G-89" value="Events" style="edgeLabel;html=1;align=center;verticalAlign=middle;resizable=0;points=[];fontSize=10;fontColor=#000000;" parent="fgf1sogdTOTN0wDzaj9G-58" vertex="1" connectable="0">
          <mxGeometry x="-0.0333" y="-2" relative="1" as="geometry">
            <mxPoint x="-4" y="-18" as="offset" />
          </mxGeometry>
        </mxCell>
        <mxCell id="fgf1sogdTOTN0wDzaj9G-60" value="" style="edgeStyle=orthogonalEdgeStyle;fontSize=12;html=1;endArrow=blockThin;endFill=1;rounded=0;strokeWidth=2;endSize=4;startSize=4;dashed=0;strokeColor=#000000;fontColor=#000000;entryX=0;entryY=0.5;entryDx=0;entryDy=0;exitX=1;exitY=0.5;exitDx=0;exitDy=0;" parent="1" source="4SqLzdmS7a_BjOeYIGlZ-43" target="4SqLzdmS7a_BjOeYIGlZ-32" edge="1">
          <mxGeometry width="100" relative="1" as="geometry">
            <mxPoint x="189" y="328.66666666666674" as="sourcePoint" />
            <mxPoint x="250.07799999999997" y="328.84176" as="targetPoint" />
          </mxGeometry>
        </mxCell>
        <mxCell id="fgf1sogdTOTN0wDzaj9G-90" value="Filtered &lt;br&gt;events" style="edgeLabel;html=1;align=center;verticalAlign=middle;resizable=0;points=[];fontSize=10;fontColor=#000000;" parent="fgf1sogdTOTN0wDzaj9G-60" vertex="1" connectable="0">
          <mxGeometry x="0.1609" y="-2" relative="1" as="geometry">
            <mxPoint x="-7" y="-19" as="offset" />
          </mxGeometry>
        </mxCell>
        <mxCell id="fgf1sogdTOTN0wDzaj9G-61" value="" style="edgeStyle=orthogonalEdgeStyle;fontSize=12;html=1;endArrow=blockThin;endFill=1;rounded=0;strokeWidth=2;endSize=4;startSize=4;dashed=0;strokeColor=#000000;fontColor=#000000;entryX=0.5;entryY=0;entryDx=0;entryDy=0;exitX=0.5;exitY=1;exitDx=0;exitDy=0;" parent="1" source="4SqLzdmS7a_BjOeYIGlZ-17" target="fgf1sogdTOTN0wDzaj9G-24" edge="1">
          <mxGeometry width="100" relative="1" as="geometry">
            <mxPoint x="479.91666666666674" y="347.07000000000016" as="sourcePoint" />
            <mxPoint x="539.96" y="250" as="targetPoint" />
          </mxGeometry>
        </mxCell>
        <mxCell id="fgf1sogdTOTN0wDzaj9G-91" value="Write events to folders" style="edgeLabel;html=1;align=center;verticalAlign=middle;resizable=0;points=[];fontSize=10;fontColor=#000000;" parent="fgf1sogdTOTN0wDzaj9G-61" vertex="1" connectable="0">
          <mxGeometry x="-0.2518" y="1" relative="1" as="geometry">
            <mxPoint x="-1" as="offset" />
          </mxGeometry>
        </mxCell>
        <mxCell id="fgf1sogdTOTN0wDzaj9G-62" value="" style="edgeStyle=orthogonalEdgeStyle;fontSize=12;html=1;endArrow=blockThin;endFill=1;rounded=0;strokeWidth=2;endSize=4;startSize=4;dashed=0;strokeColor=#000000;fontColor=#000000;exitX=0.5;exitY=1;exitDx=0;exitDy=0;entryX=0.5;entryY=0;entryDx=0;entryDy=0;" parent="1" source="fgf1sogdTOTN0wDzaj9G-24" target="fgf1sogdTOTN0wDzaj9G-14" edge="1">
          <mxGeometry width="100" relative="1" as="geometry">
            <mxPoint x="489.9599999999998" y="382" as="sourcePoint" />
            <mxPoint x="489.9599999999998" y="451.5" as="targetPoint" />
          </mxGeometry>
        </mxCell>
        <mxCell id="fgf1sogdTOTN0wDzaj9G-64" value="" style="edgeStyle=orthogonalEdgeStyle;fontSize=12;html=1;endArrow=blockThin;endFill=1;rounded=0;strokeWidth=2;endSize=4;startSize=4;strokeColor=#EA4335;dashed=1;fontColor=#000000;exitX=0.75;exitY=0;exitDx=0;exitDy=0;entryX=0.5;entryY=1;entryDx=0;entryDy=0;" parent="1" source="fgf1sogdTOTN0wDzaj9G-14" target="fgf1sogdTOTN0wDzaj9G-31" edge="1">
          <mxGeometry width="100" relative="1" as="geometry">
            <mxPoint x="710" y="250" as="sourcePoint" />
            <mxPoint x="810" y="250" as="targetPoint" />
            <Array as="points">
              <mxPoint x="515" y="520" />
              <mxPoint x="715" y="520" />
            </Array>
          </mxGeometry>
        </mxCell>
        <mxCell id="fgf1sogdTOTN0wDzaj9G-63" value="" style="edgeStyle=orthogonalEdgeStyle;fontSize=12;html=1;endArrow=blockThin;endFill=1;rounded=0;strokeWidth=2;endSize=4;startSize=4;strokeColor=#34A853;dashed=0;fontColor=#000000;exitX=0.75;exitY=0;exitDx=0;exitDy=0;entryX=0.5;entryY=1;entryDx=0;entryDy=0;" parent="1" source="fgf1sogdTOTN0wDzaj9G-14" target="fgf1sogdTOTN0wDzaj9G-29" edge="1">
          <mxGeometry width="100" relative="1" as="geometry">
            <mxPoint x="400" y="680" as="sourcePoint" />
            <mxPoint x="500" y="680" as="targetPoint" />
          </mxGeometry>
        </mxCell>
        <mxCell id="AsG0Dr7s8LOYVM2apBg6-3" value="Move&lt;br&gt;events" style="edgeLabel;html=1;align=center;verticalAlign=middle;resizable=0;points=[];" parent="fgf1sogdTOTN0wDzaj9G-63" vertex="1" connectable="0">
          <mxGeometry x="-0.6593" relative="1" as="geometry">
            <mxPoint x="10" y="-3" as="offset" />
          </mxGeometry>
        </mxCell>
        <mxCell id="fgf1sogdTOTN0wDzaj9G-65" value="" style="group" parent="1" vertex="1" connectable="0">
          <mxGeometry x="790" y="547" width="179" height="66" as="geometry" />
        </mxCell>
        <mxCell id="fgf1sogdTOTN0wDzaj9G-33" value="" style="html=1;overflow=block;blockSpacing=1;whiteSpace=wrap;fontSize=16.7;fontColor=#ffffff;spacing=3.8;strokeOpacity=100;fillOpacity=100;rounded=1;absoluteArcSize=1;arcSize=9;fillColor=#333333;strokeWidth=0.8;lucidId=GswLpbe4Q8BF;" parent="fgf1sogdTOTN0wDzaj9G-65" vertex="1">
          <mxGeometry width="179" height="66" as="geometry" />
        </mxCell>
        <mxCell id="fgf1sogdTOTN0wDzaj9G-34" value="" style="html=1;overflow=block;blockSpacing=1;whiteSpace=wrap;shape=image;fontSize=13;spacing=0;strokeColor=none;strokeOpacity=100;strokeWidth=0;image=https://images.lucid.app/images/1f929369-ef7f-4cdf-b537-fe316cc4099a/content;imageAspect=0;lucidId=GswL3xc~YGH6;container=1;collapsible=0;" parent="fgf1sogdTOTN0wDzaj9G-65" vertex="1">
          <mxGeometry x="3" width="173" height="66" as="geometry" />
        </mxCell>
        <mxCell id="fgf1sogdTOTN0wDzaj9G-66" value="" style="edgeStyle=orthogonalEdgeStyle;fontSize=12;html=1;endArrow=blockThin;endFill=1;rounded=0;strokeWidth=2;endSize=4;startSize=4;dashed=0;strokeColor=#000000;fontColor=#000000;exitX=1;exitY=0.5;exitDx=0;exitDy=0;entryX=0;entryY=0.5;entryDx=0;entryDy=0;" parent="1" source="fgf1sogdTOTN0wDzaj9G-14" target="fgf1sogdTOTN0wDzaj9G-33" edge="1">
          <mxGeometry width="100" relative="1" as="geometry">
            <mxPoint x="580" y="670" as="sourcePoint" />
            <mxPoint x="700" y="590" as="targetPoint" />
          </mxGeometry>
        </mxCell>
        <mxCell id="fgf1sogdTOTN0wDzaj9G-76" value="" style="rounded=0;whiteSpace=wrap;html=1;labelBackgroundColor=default;fontSize=10;fontColor=#000000;strokeColor=none;" parent="1" vertex="1">
          <mxGeometry x="417.48" y="690" width="135.04" height="60" as="geometry" />
        </mxCell>
        <mxCell id="fgf1sogdTOTN0wDzaj9G-93" value="" style="edgeStyle=orthogonalEdgeStyle;fontSize=12;html=1;endArrow=blockThin;endFill=1;rounded=0;strokeWidth=2;endSize=4;startSize=4;strokeColor=#000000;fontColor=#000000;exitX=1;exitY=0.5;exitDx=0;exitDy=0;" parent="1" source="4SqLzdmS7a_BjOeYIGlZ-71" target="fgf1sogdTOTN0wDzaj9G-14" edge="1">
          <mxGeometry width="100" relative="1" as="geometry">
            <mxPoint x="340" y="580" as="sourcePoint" />
            <mxPoint x="410" y="565" as="targetPoint" />
          </mxGeometry>
        </mxCell>
        <mxCell id="AsG0Dr7s8LOYVM2apBg6-1" value="" style="edgeStyle=orthogonalEdgeStyle;fontSize=12;html=1;endArrow=blockThin;endFill=1;rounded=0;strokeWidth=2;endSize=4;startSize=4;dashed=0;strokeColor=#000000;entryX=0.5;entryY=1;entryDx=0;entryDy=0;exitX=0.25;exitY=0;exitDx=0;exitDy=0;" parent="1" source="fgf1sogdTOTN0wDzaj9G-14" target="fgf1sogdTOTN0wDzaj9G-39" edge="1">
          <mxGeometry width="100" relative="1" as="geometry">
            <mxPoint x="190" y="750" as="sourcePoint" />
            <mxPoint x="290" y="750" as="targetPoint" />
          </mxGeometry>
        </mxCell>
        <mxCell id="AsG0Dr7s8LOYVM2apBg6-2" value="Log&lt;br&gt;status" style="edgeLabel;html=1;align=center;verticalAlign=middle;resizable=0;points=[];" parent="AsG0Dr7s8LOYVM2apBg6-1" vertex="1" connectable="0">
          <mxGeometry x="0.012" y="-2" relative="1" as="geometry">
            <mxPoint x="41" y="11" as="offset" />
          </mxGeometry>
        </mxCell>
        <mxCell id="HqxaJNys2O56Uum3NzPm-13" value="/data-sources" style="strokeColor=#000000;shadow=0;strokeWidth=1;rounded=1;absoluteArcSize=1;arcSize=2;fontSize=10;" parent="1" vertex="1">
          <mxGeometry x="210" y="441.5" width="90" height="30" as="geometry" />
        </mxCell>
        <mxCell id="HqxaJNys2O56Uum3NzPm-17" value="" style="edgeStyle=orthogonalEdgeStyle;fontSize=12;html=1;endArrow=blockThin;endFill=1;rounded=0;strokeWidth=2;endSize=4;startSize=4;dashed=0;strokeColor=#000000;exitX=0.5;exitY=1;exitDx=0;exitDy=0;entryX=0;entryY=0.25;entryDx=0;entryDy=0;" parent="1" source="HqxaJNys2O56Uum3NzPm-13" target="fgf1sogdTOTN0wDzaj9G-14" edge="1">
          <mxGeometry width="100" relative="1" as="geometry">
            <mxPoint x="20" y="680" as="sourcePoint" />
            <mxPoint x="120" y="680" as="targetPoint" />
            <Array as="points">
              <mxPoint x="255" y="530" />
              <mxPoint x="380" y="530" />
              <mxPoint x="380" y="565" />
            </Array>
          </mxGeometry>
        </mxCell>
        <mxCell id="HqxaJNys2O56Uum3NzPm-18" value="Read configs" style="edgeLabel;html=1;align=center;verticalAlign=middle;resizable=0;points=[];fontSize=10;" parent="HqxaJNys2O56Uum3NzPm-17" vertex="1" connectable="0">
          <mxGeometry x="-0.0595" relative="1" as="geometry">
            <mxPoint x="7" as="offset" />
          </mxGeometry>
        </mxCell>
        <mxCell id="HqxaJNys2O56Uum3NzPm-24" value="&lt;span style=&quot;&quot; data-lucid-content=&quot;{&amp;quot;t&amp;quot;:&amp;quot;Get open manifests\nCreate manifest (if no open manifests)\nAdd manifest entry\nNotify manifest (if single_file_manifest = true)&amp;quot;,&amp;quot;m&amp;quot;:[{&amp;quot;s&amp;quot;:0,&amp;quot;n&amp;quot;:&amp;quot;s&amp;quot;,&amp;quot;v&amp;quot;:17.77777777777778,&amp;quot;e&amp;quot;:125},{&amp;quot;s&amp;quot;:0,&amp;quot;n&amp;quot;:&amp;quot;c&amp;quot;,&amp;quot;v&amp;quot;:&amp;quot;333333ff&amp;quot;,&amp;quot;e&amp;quot;:125},{&amp;quot;s&amp;quot;:0,&amp;quot;n&amp;quot;:&amp;quot;fc&amp;quot;,&amp;quot;v&amp;quot;:&amp;quot;Regular&amp;quot;,&amp;quot;e&amp;quot;:125},{&amp;quot;s&amp;quot;:0,&amp;quot;n&amp;quot;:&amp;quot;fid&amp;quot;,&amp;quot;v&amp;quot;:2,&amp;quot;e&amp;quot;:125}]}&quot; data-lucid-type=&quot;application/vnd.lucid.text&quot;&gt;&lt;span style=&quot;color: rgb(51, 51, 51);&quot;&gt;Create manifest&lt;br&gt;&lt;/span&gt;&lt;span style=&quot;color: rgb(51, 51, 51);&quot;&gt;Add manifest entries in batches defined in configuration&lt;br&gt;&lt;/span&gt;Notify manifest&lt;br&gt;&lt;span style=&quot;color: rgb(51, 51, 51);&quot;&gt;Optional: Workflow (DAG) trigger&lt;/span&gt;&lt;span style=&quot;color: rgb(51, 51, 51);&quot;&gt;&lt;br&gt;&lt;/span&gt;&lt;/span&gt;" style="text;whiteSpace=wrap;html=1;fontSize=10;" parent="1" vertex="1">
          <mxGeometry x="590" y="580" width="190" height="70" as="geometry" />
        </mxCell>
        <mxCell id="g6LQHu9N5bepaxgSTT7o-4" value="" style="group" parent="1" vertex="1" connectable="0">
          <mxGeometry x="25.04000000000002" y="521.1800000000001" width="189.96" height="130" as="geometry" />
        </mxCell>
        <mxCell id="HqxaJNys2O56Uum3NzPm-6" value="" style="html=1;overflow=block;blockSpacing=1;whiteSpace=wrap;fontSize=13;spacing=3.8;strokeColor=#5e5e5e;strokeOpacity=0;fillOpacity=100;rounded=1;absoluteArcSize=1;arcSize=9;fillColor=#D4E1F5;strokeWidth=2.3;lucidId=knI3quqcHZnL;" parent="g6LQHu9N5bepaxgSTT7o-4" vertex="1">
          <mxGeometry x="15.469999999999999" width="159.02" height="130" as="geometry" />
        </mxCell>
        <mxCell id="HqxaJNys2O56Uum3NzPm-19" value="" style="shape=image;verticalLabelPosition=bottom;labelBackgroundColor=default;verticalAlign=top;aspect=fixed;imageAspect=0;image=data:image/png,iVBORw0KGgoAAAANSUhEUgAAAgAAAAIACAYAAAD0eNT6AAAABGdBTUEAALGPC/xhBQAAAAFzUkdCAK7OHOkAAAAgY0hSTQAAeiYAAICEAAD6AAAAgOgAAHUwAADqYAAAOpgAABdwnLpRPAAAIABJREFUeJztnXncrVPduL/ImOGEUJmHJEPJmKE4VDJFJ/IihZLqRao3pUKoFyVRlCHhrWQsUb+Ut15DhugtITIlkYpwzI7h9/t+2+f8eno8ez9r7XWv+7vWva/r87n+O3vvtdbZ9/1ce1q3CEBZzKGuoG6m7qkerp6mXqheqf5efUB9UJ2u/l9EJx9X/6zeol6tfks9QN1KXUoAAKAvc6rrqfuqp6jXqk+I/4kdsQlvVY9Vt1DnFQCAEeZF6huk96r+UuGPPY6Oj6rfUF8vAAAjwhT13eo56sPifyJG9PZGdR91PgEA6BgvVndVf6A+Jf4nXMQS/av6H+r8AgBQOWuqJwiv9BFjvF/9hDqPAABUhH2u/071GvE/kSLW7J3q2wUAoHDsbcv91bvE/8SJ2CUvUVcTAIDCmEvdS71P/E+UiF31GfUIdW4BAHDGNujZW71X/E+OiKPi9dL7bg0AgAu2K99vxf9kiDiKzlAPld7GWQAArbCker74nwARsbfd8LICAJCR2dTd1L+L/0kPEf+pXf9iJwEAyMBy6mXif6JDxP5+Vdg3AAAaZAf1IfE/uSHi5P5a+EgAABJZUD1L/E9oiBinbSdsF9gCAIhmZfUm8T+RIeJw2p4BBwgAQAT2lr9dptT7BIaI6Z4ivY26AAAGsp/6vPiftBCxOa9QFxUAgAmwi/ecKP4nKkTM423qKwUAYAx2AR+70Ij3CQoR8/o3dQMBAFCmqFeK/4kJEdvxSXVHAYCR5iXqNeJ/QkLEdrXv+XxYAGAkWVh6VxTzPhEhop+fEQAYKWyDH175I6Jp2wfPLgDQeeYT9vRHxH/1v4TLCgN0Gqv888T/ZIOI5XmROq8AQCf5kvifZBCxXK+W3veDAKBDfFD8Ty6IWL52NcHFBQA6gW388bT4n1gQsQ7vVFcUAKial6v3if8JBRHr8l51VQGAKrH9/e0iIN4nEkSs0/vVNQUAquMw8T+BIGLdPqSuKwBQDRuqz4r/yQMR6/dhdX0BgOKxnf7sSzzeJw1E7I7ThSsJAhTPCeJ/skDE7vmYuqkAQJHY23TPif+JAhG76ePqZgIARTG3erP4nyAQsdtaBGwuAFAMB4r/iQERR8On1G0EANx5mfqI+J8U2vZJ9TfqWepR0ru++UfUvdQd1R0Qh3An6X2X5i/i/xwvWYuArQUAXDlV/E8GbfhH9Zvqu9TlheuYQ17mkN4fuF+J/3O/VG2b8bcNu8AAkMYa0u0v/t2lHqq+qqH1AohlNnVX6f0Uzvt4KNEZ6rShVxcAhuZ74n8CaFoLmnPUTYRX+VAOdoGc68X/+ChRi4Dth19aAIhlLfV58T/4m/zDf7a6SpOLBNAgi6o3iP+xUqIWAdsNv7QAEMNF4n/QN+VP1JWbXR6ALCyh3iP+x0yJ2ncC+HUAQGZWk268+v+zulvDawOQmzdJN44/IgCgQr4h/gd6qvZ2/0JNLwxAS5wo/sdQqdpPBLcYfmkBoB+LSe838N4HecrJYb/GVwWgXWz/jcfF/3gqVXsnYKuhVxcAJuQg8T+4h9Xe8l+r+SUBcOFL4n9MlewTwrbBAI1hP4u7S/wP7GG0yxSv2PiKAPjxSuG7ACERwAWEABrAPlfzPqCH0XZTWzzDegB4c5n4H1+lax+VbDLk+gLATM4V/4M51hvVhXMsBkAB2PdZvI+xGnxMfcOQawww8iwo9X3570/q0jkWA6AQ7LoU3sdZLfJOAMCQ2H7k3gdwjA8Im/vAaHCH+B9vtWhXLt1guGUGGF0uFP+DN1T7YhRXCYNR4Tvif8zVpH0c8MahVhpgBFlAer+f9z5wQ/1CnmUAKJIPi/8xV5u8EwAQiF1kw/uADfVqdc48ywBQJFPF/7irUYuADYdYb4CRopZtR59R18i0BgClsqT4H3u1ah8HbBK94gAjxF3if6CGeFSm+QOUzGzqo+J//NUq7wQA9MF2z/M+QEO8W50/0xoAlM4t4n8M1iwRADAB7xb/gzPE3XMtAEAFXC7+x2DtEgEA4zhJ/A/MybRX/3PlWgCACjhf/I/DLsh3AgDGYFvpeh+Uk/mhbLMHqINavqhbg7wTAKDMpz4n/gfkIO9X5821AACVcLj4H4tdkgiAkWcd8T8QJ/O4bLMHqAcuCkQEADTKe8X/IJzMtbLNHqAe9hD/Y7GL8p0AGFm+LP4H4CBvyjd1gKrYRfyPx67KOwEwklwk/gffIA/NN3WAqpgm/sdjlyUCYOSwV9jeB94gN8k2c4C62Fr8j8euSwTASGGff3kfdP18Up0n39QBquLN4n9MjoJ8JwBGgsXE/2Ab5CX5pg5QHW8Q/2NyVOSdAOg8q4v/gTZILvwD8E9eL/7H5ChJBECn2VT8D7JB7plv6gDVsb74H5OjJh8HQGfZQfwPsEFS3wD/ZD3xPyZHUSIAOsle4n9wDXKxfFMHqI51xf+YHFX5OAA6x/7if2D183l19nxTB6iOGrbt7rK8EwCd4gDxP6j6+WjGeQPUyNrif1yOukQAdIbPiP8B1c/7Ms4boEbsmhjexyXycQB0hMPE/2Dq560Z5w1QIwRAORIBUD0lX1/8dxnnDVAjBEBZ8nEAVA0BAFAPBEB5EgFQLQQAQD0QAGVKBECVEAAA9UAAlCvfCYDqIAAA6oEAKFt7J2DTvv97AIVBAADUAwFQvo+rU/v9BwKUBAEAUA8EQB1aBGzW5/8QoBgIAIB6IADq0SJg84n/GwHKgAAAqAcCoC6fUN804f8kQAEQAAD1QADU51Pq1hP9ZwJ4QwAA1AMBUKdPq9tM8P8J4AoBAFAPBEC9WgRs+8L/UgA/CACAeiAA6tYiYLsX/K8COEEAANQDAVC/FgHbj/+PBfCAAACoBwKgG85Q3y4AzhAAAPVAAHRHi4BpAuAIAQBQDwRAt3xWfacAOEEAANQDAdA97Z0Afh0ALhAAAPVAAHRT9gkAFwgAgHogALqrRcBWAtAiBABAPRAA3dauHcBVBKE1CACAeiAAuq9dRXBTAWgBAgCgHgiA0dAi4I0CkBkCAKAeCIDR8TF1YwHICAEAUA8EwGj5sLquAGSCAACoBwJg9LQIWFsAMkAAANQDATCaPqC+RgAahgAAqAcCYHT9m7qyADQIAQBQDwTAaHu3urQANAQBAFAPBADeqC4sAA1AAADUAwGA5jXq/AKQCAEAUA8EAM7yEnVuAUiAAACoBwIAx3q+OocADAkBAFAPBACO92sCMCQEAEA9EAA4kYcJwBAQAAD1QABgPz8qAJEQAAD1QABgP59X3yUAERAAAPVAAOAgZ6ibC0AgBABAPRAAOJnT1dUFIAACAKAeCAAM8Q/q4gIwCQQAQD0QABjqtep8AjAAAgCgHggAjPEsdTYB6AMBAFAPBADGeqAA9IEAAKgHAgBjfU7dWgAmgAAAqAcCAIfxEfXVAjAOAgCgHggAHNZb1IUEYAwEAEA9EACY4tkCMAYCAKAeCABM9X0CMBMCAKAeCABM9Un1NQIgBABATRAA2IQ3CZsEgRAAADVBAGBTnigw8hAAAPVAAGBT2uWDtxAYaQgAgHogALBJ71GnCIwsBABAPRAA2LQnCYwsBABAPRAA2LT2UcDmAiMJAQBQDwQA5vBmdU6BkYMAAKgHAgBzub/AyEEAANQDAYC5nK4uITBSEAAA9UAAYE75QuCIQQAA1MOq4n9cYnd9Vl1JYGQgAADqYWnxPy6x254iMDIQAAD1YN/UniH+xyZ2V3t+LScwEhAAAHVhP9nyPjax235dYCQgAADq4lTxPzax2z4hbBE8EhAAAHWxi/gfm9h99xboPAQAQF0sqD4u/scndttrBToPAQBQH6eL//GJ3fe1Ap2GAACoj1XU58T/GMVue4hApyEAAOrkDPE/RrHbXiPQaQgAgDqxfdsfEv/jFLurvcv0UoHOQgAA1Ms08T9OsdvuLNBZCACAujlS/I9V7K5HC3QWAgCgbmYTfhWA+bxYoLMQAAD1YxFgr9S8j1nsnvcKdBYCAKA7vF99UvyPXeyWbAvcUQgAgG6xqnqp+B+/2B1XEugkBABA97CPBLZXfyX+xzHW79oCnYQAAOg266rHqreI/zGNdbqZQCchAABGh5epm6t7qQeon1ePwH/4VfVE9Sz1PPWn6mXqdert6qPif070cjuBTkIAAACEMa+6rDpVfa/6n+qP1L+K//kyp29vYO2gQAgAAIB0llLfo56pPiD+508CACaFAAAAaJY5pPdRy9nqM+J/LiUAYEIIAACAfLxSeiHwvPifUwkA+BcIAACA/Gyk/kH8z6sEAPx/CAAAgHZ4iXqB+J9bCQD4BwQAAEB7zC69Lwp6n18JACAAAABaZk7p/XzQ+xxLAIw4BAAAQPssIvXsH0AAdBQCAADAh13F/zxLAIwwBAAAgB+/Ff9zLQEwohAAAAB+fEj8z7UEwIhCAAAA+LGg+oT4n28JgBGEAAAA8OVS8T/fEgAjCAEAAODLkeJ/viUARhACAADAl3eI//mWABhBCAAAAF/WF//zLQEwghAAAAC+rCz+51sCYAQhAAAAfFlM/M+3BMAIQgAAAPjyYvE/3xIAIwgBAADgCwEALhAAAAC+EADgAgEAAOALAQAuEAAAAL4QAOACAQAA4AsBAC4QAAAAvhAA4AIBAADgCwEALhAAAAC+EADgAgEAAOALAQAuEAAAAL4QAOACAQAA4AsBAC4QAAAAvhAA4AIBAADgCwEALhAAAAC+EADgAgEAAOALAQAuEAAAAL4QAOACAQAA4AsBAC4QAAAAvhAA4AIBAADgCwEALhAAAAC+EADgAgEAAOALAQAuEAAAAL4QAOACAQAA4AsBAC4QAAAAvhAA4AIBAADgCwEALhAAAAC+EADgAgEAAOALAQAuEAAAAL4QAOACAQAA4AsBAC4QAAAAvhAA4AIBAADgCwEALhAAAAC+EADgAgEAAOALAQAuEAAAAL4QAOACAQAA4AsBAC4QAAAAvhAA4AIBAADgCwEALhAAAAC+EACOzK4up26qTlN3GCHPE/8nVz/vKWB9EEt0c3VldU6BLkAAtMxS6sfVn6qPi/8CIyLGOkO9Qv2suopArRAALbGhepH6nPgvKiJik/5C3UadTaAmCIDMvEI9Q/wXEhExt9eq6wjUAgGQERv8Q+K/iIiIbfmMeoj0vuMEZUMAZMDeBjtS/BcPEdHLs9S5BUqGAGgY++N/kvgvHCKit/Zl53kESoUAaJgjxH/REBFL0X7yy8cBZUIANIj9TtZ7wRARS/PTAiVCADTEkup08V8wRMTSfFZdX6A0CICGOFf8FwsRsVT/V51DoCQIgAZYV/wXChGxdHcVKAkCoAG+J/4LhYhYunahLXYLLAcCIJHFpbfxhfdCISLWoG2LDmVAACSyn/gvEiJiLR4vUAoEQCJ2gR/vRUJErMVbBUqBAEiEvf4REeNcQqAECIAEXib+C4SIWJubCJQAAZDABuK/QIiItbmHQAkQAAlsIf4LhIhYmx8WKAECIIHtxX+BEBFr81MCJUAAJGCD814gRMTa5OJAZUAAJEAAICLGSwCUAQGQAAGAiBgvAVAGBEACBAAiYrwEQBkQAAkQAIiI8RIAZUAAJEAAICLGSwCUAQGQAAGAiBgvAVAGBEACBAAiYrwEQBkQAAkQAIiI8RIAZUAAJEAAICLGSwCUAQGQAAGAiBgvAVAGBEACBAAiYrwEQBkQAAkQAIiI8RIAZUAAJEAAICLGSwCUAQGQAAGAiBgvAVAGBEACBAAiYrwEQBkQAAk0HQDPqeeoZwd6rvp8w2No2j9GzMe8uqVxfU1dK8BtC1jDWK+OXPPxXlrAHJrwlsR1MO/IPMbrIsZyawFr2pQEQBkQAAnkeAcgdsI/zDCGJt0xcj4XtDSu1SLG9KuWxtSUu0TMbSKmqE8VMI9Ut0tcB+PEzGN8f8RYjsk8ljYlAMqAAEggRwDcoM4eMYapGcbQlPbq6UURc1lT2nlH49qIMRn7tTCmJk0NAOP7BcwjxenqPA2sAwGQRwKgDAiABHJ9ByD2lUupr1A/EDmPtl797xs5rkXUp1saWxM2EQDvLGAeKZ7WwBoYBEAeCYAyIAASyBUAv1ZnixjHLpnGkeJf1Xkj5tDWq/9n1MUjxjWLtuKkCZsIgPnURwuYy7C+tYE1MAiAPBIAZUAAJJDzVwDbRoxjTul92c77PyvlAG/rD+xFkeOaxbSWxteETQSA8a0C5jKMD6pzNbQGBEAeCYAyIAASyBkA9rZ+zLsAH8s4llgfk97b5qG09erffGfEuMZif1Dub2mMqTYVAFsVMJdhPLGh+YsQALkkAMqAAEgg9z4AW0WMZQH14czjCfWYiHEbbb36ty+GzRc5trEc39I4U20qAOydpVqiZ6xTG5q/QQDkkQAoAwIggdwBYL8RjnkX4IuZxxPiDHWZiDG3+er/lIhxTcR6LY0z1aYCwPh6AfOJ8T51jgbnTwDkkQAoAwIggTZ2Aoz5MtOS0vsD7PkfdkbEeI02v1z3xsixTcTNLY53WJsMgDcWMJ8Yj2tw7gYBkEcCoAwIgATaCICrI8f07RbGNMjXRoy1zVf/9iXJmP0V+nFgS+NNsckAsHeg7ipgTqFu2ODcDQIgjwRAGRAACbR1LYC3RIzpdS2NaSL/T8Q4jTY3m/lc5Nj6sZT0tmz2PjAGGRIAK0j4x0slfLQU4t0SFnkrBs7bIADySACUAQGQQFsBcGXkuH7W0rjGu2nEGC1U2ryOwasCxrSshO1c+NMWxz2MIQFgJ+ANAv6dsVYBcwrx6IC52PcDfhw4b4MAyCMBUAYEQAJtXg3wTRHj8vj51i8jxme0+dl/6Njep64e8O92a3HswxgSAB9Wjw34d7P4XQHzmsy1A+axmcQ9VwmAPBIAZUAAJNBmAPwiYlz21u6NLY7NnBYxvjY/+zf3CRyXfYHx3QH/zg6aR1ocf6whAbCnxH1j/pAC5jVIu+5EyEcaJ6mXB87ZIADySACUAQGQQJsBYG4WMbY9WxyXXaY05qdXbX72b7+KeGnguO5STwj8t6e1OIdYQwJgx5n/NvQ38ysXMK9Bfj5gDravwQPqJYFzNgiAPBIAZUAAJNB2AFwRMba51T+3NK69IsbV9qv/HwSOa5WZ//6mwH9f8lUYQwJgy5n/NmbXvFIvOmWuETD+WR+N/TBizgRAHgmAMiAAEmg7AMxNIsb36RbGE3vRn7YvqrND4Lg+MvPfW5yEXCzI3m6+s+W5hBoSABvP/Lcx++aXtN30WG8OHP8ZM//9+YH/3iAA8kgAlAEBkIBHAPw8Yny2H//jmcdzYMR42v7mv22NHHpN+LHf7N8p8DaHtziXGEMC4LVj/v2WgfMt9SeQBweM3Z4H02f+++8GztcgAPJIAJQBAZCARwCYb4gYY8796+2LcC+JGEvbr/5PDhyXhdLTY253ZuDtXtnyfEIN3Qdg1r8/PXC+xqUFzG+8IT/x3H7I+RIAeSQAyoAASMArAGK+xLSc+mymcXwxYhxtf/ZvhobS3uNuZ2ET+s7BVS3PKcSQAFh83HxDP8YZv1be/m/guM8ec5uTAm9jEAB5JADKgABIwCsAzI0jxnlehse3b9cvHTGGtl/93yXhW/9ePsHtQ98W/0DL8woxJADmG3eb0ANtYfnXd0u8PSBgzHaSe2zMbb4SOFeDAMgjAVAGBEACngHwk4hxbpDh8b8Z8fger/4PCxzb0n3GFvrxgX0E8lTLc5vMkACwLzGOfWforMD5Gj8sYI6zXCFgvLuMu03MO1cEQB4JgDIgABLwDABzo4ixXtng49ofzNUiHrvtV/9myOfCxif73P5+CdsW2DjHYX6DDL0Y0KwvxZn2ZdH5A2+3awFzNEMvlPWDcbeLuS4EAZBHAqAMCIAEvAMgZk/zaQ0+7oURj+vx6v+aiPHdMOB+Qr9DsE3L85vM0AC4Z9ztdg683fi31L3cP2CsU+SF79AcFDhPgwDIIwFQBgRAAt4BYK4fOFbbqe/2hh4z5lcIHq/+/z1wbGtMcj/HBN6P7TD3V4d59jM0AMbv739B4O2Ms5znaD9HXDJgnLtPcNtPRsyTAMgjAVAGBEACJQTAjyLG+6EGHu+qiMdr+3f/ZszWv/85yX2FXl7WKOnkHBoA1427nb1SnhJ42+2c53hZ4DgvnuC2Hw+8rUEA5JEAKAMCIIESAsBcN3C89s3v+xMfa7vw5XF59R/zKjbkHZFNAu9rTYe59jM0ACb6Xsgegbe13QP/7jjHDwaM0ULwmQlu+5HAORoEQB4JgDIgABIoJQBiPpNP2b3uFgl/Rezx2b/5jsDxrRt4f6G/BjCud5jvRIYGwP9McNuLI+b7Daf52a8XQrZr7veO134RcyQA8kgAlAEBkEApAWCuEzjmxdQnh3yMPSPWxuPVv239G7qhzdGB9zk94j5L2Ss/NAAmens89I+rsbnT/EJ/AntZn9uHfkfEIADySACUAQGQQEkBEPPW9zCv3P4i4bvjeb36D72ynf0G/q6I+50WeL/2h3Oit5zbNjQALuxz+5C31w17N+heh/mFhOjLpf91Cz4QOD+DAMgjAVAGBEACJQWAuXbguO038rEXdQnZcW0WHq/+zdB9ETaMvN+Yq8f9yGnuYw0NgH47RF4aMd9jW56bfclz4YBxfXTAfcRcvpoAyCMBUAYEQAKlBcD3IsYes5ubvQ0e+u1wr1f/d0nvlX0Ix0Xet219u0jgfe/kMPfxhgbAmX1uH/oTO2P9lucW+n2XXw64j5iPsgiAPBIAZUAAJFBaANgf3rUCxz414n6PjFgTr1f/hwaOb9i3rUNfNdrHJA85rcEsQwPgtAH3EfNN+dtanNuuAeNZXgZH6Lsj5kYA5JEAKAMCIIHSAsA8L2L8vwq4P3vLdanA+/N69W+uHDjGTYa8/5i3xU92WoNZhgbASQPuI2Y3xc+1NC/78uqCAeP51CT3ExIRsyAA8kgAlAEBkECJAWB/gNcIHP/4i6RM5KkR6+H16j90T3jjhCEfw9Z12cDH2MhpHWYZGgBfnWS+ywfez2otzSs0bif7OWbo+hgEQB4JgDIgABIoMQDMcwLHb1vY3j3gfuyPwCqB9+Wx698sPxQ4Rru4T8qWvQcGPo59F6GpbZeHMfQP3JcnuZ+YLXN/28K8dgwYxyoB90MA+EsAlAEBkECpAWB/iFcPnMOg365/P2ItvF7920cUiwaO8U2Jj/W7iPU42Gk9zNA/cJP9Qbk+Yr79rqrYlHbxoRcHjOPQgPsiAPwlAMqAAEig1AAwvxs4hwWkt4HORPexQeB9eH72HxMppzTweGsGPtayjmvSVACYqwbe1zKZ5/vtwHH8PuC+CAB/CYAyIAASKDkA7KdcqwXO44sT3P7yiHXwevVvhm7SYx93PNDA430xYl367USX2yYD4LMR853o2gJNuW3A468VeF8EgL8EQBkQAAmUHADmdwLnYb/5njHuttsE3tbz1f+D6tyB49yyocf8s/QurRzCnk7r0mQA3B54X8Y+meZjP6sM+X8+KvD+CAB/CYAyIAASKD0AbF/3VwXO5dtjbnezhF/0x/PV/9cDx2ic3uDjbh74mPaTtccd1qXJADBfF3h/dp2JHFshh/wSxb54+YfA+yMA/CUAyoAASKD0ADC/FTiX18g/X8nvHngbz1f/5oaB47RXj/2+5zCM3wx8XOM7DuvSdADEbAT1kwzzeUvA48Zs70wA+EsAlAEBkEANAWDvAoRukvMz9R7pXes9BM9X/3+Q8K1/39bwYz+izhf42Fs4rE3TAWA/FQ1d690bnsv90vv+xmTEbO9MAPhLAJQBAZBADQFgnh44n62k97PAELxf/R8SOE5j7McbTfnOwMe2j1L+1OK6mE0HgBn6ixD72OOJBufytYDHjN3emQDwlwAoAwIggVoCwD6XXSlgPvYqL+S31obnq//nA+djzCu9V+xNjyH0ojRG6JfTmjJHABwbMd/zG5zLpgGPt2nkfRIA/hIAZUAAJFBLAJjfbHDe3q/+r4wY67RMY7CoWixwDK9ucW3MHAFwn4T/+mGHhuYR+piDrmmQsj4GAZBHAqAMCIAEagoA+y5A6KvmyfB89W9+IGKsZ2ccR+gWxEbIhZeaMkcAmFMD79euiNjEly6/HPBYw+zvQAD4SwCUAQGQQE0BYH6jgTl7v/p/WsK3/rUv6j2WcSwx70Ts28LazDJXAJwYMd8zGpjH6wMeZ6sh7pcA8JcAKAMCIIHaAsA2+wm9wls/vF/9nx8x1p1aGE/ouyqLSC9e2lijXAFgGy+F/kLkrYlzCP3lwTChQQD4SwCUAQGQQG0BYJ6UMF/vV//m9hHj/V4L4zkoYjxtxVOuADC3DLzv1CsvHhXwGMN+1EAA+EsAlAEBkECNAWDvAiw75Hy9X/3/XcK3/jUOUY/IbMz3Edp6vuQMgNCflBonJMxh7YD7337I+yYA/CUAyoAASKDGADBjttCdRQmv/kN+E14y9va5bWyTe51yBoD9pHLewPvfeMjxh15/YNgveBIA/hIAZUAAJFBrAAzzLoD3q38zdDOakjle8q9TzgCIOShj9ucf62EB920nrmG/4EkA+EsAlAEBkECtAWCeEDHPpcX/1b+9KgzdjrZk1pX8a5U7AM6KmO8wmyCtHnC//zbk2GPWxyAA8kgAlAEBkEDNAXBtxDzb3shmIg+OGG/p2NUWc65V7gCwKxzOH/gYa0be9+8C7zflHSkCwF8CoAwIgAQIgPZ8ZcR4S+dAybtWuQPA3DlivjdF3G/IH4Yp6lMJYycA/CUAyoAASIAAaMcrIsZaA6+Q3s6MudarjQC4IGK+B0Xcb0jo7ZEw7pj1MQiAPBIAZUAAJEAAtGPMSbIWLpF869VGANimRgsHPs4KEvYdkl8F3t/FCeOOWR+DAMgjAVAGBEACBEB+7Q/NIhFjrYXdJN+atREA5h4R87024P4+HnA/L5XehZjaWB8tFgh3AAARJ0lEQVSDAMgjAVAGBEACBEB+z4sYZ03YgZfjMsVmWwFwccR8PzLJfdk7BMsG3M8HE8ccsz4GAZBHAqAMCIAECID8bhcxzk+odzj7jojxnha5FqG2FQAxl0S27z08N+C+rgq8n0sTxxyzPgYBkEcCoAwIgAQIgLzGbP1rewTc6TTOsV4UOF5jaqYxtBUA5gcj5vvzAfezX8DtXy6DI6Lp9TEIgDwSAGVAACRAAOT1+IgxbuA0xvHGvCrOFS1tBsClgY9l7NXnPuyP+isCbj/ZxwhNr49BAOSRACgDAiABAiCv60eM8StOY5zImAsEHZ7h8dsMAPvsfunAx3uJTHxJ5J8H3v6aBsYbsz4GAZBHAqAMCIAECIB83ibhW//apWf/4jDGfl4WOG5jJWl+m+U2A8D8SMR8L5zg9nsH3G55aW6dCAB/CYAyIAASIADyeVDE+N7iML5Bhn6jfRZXNfz4bQfANRFz3XncbUM/Mmly90QCwF8CoAwIgAQIgDzaH9DlI8Z3WsvjC/GAiPF/oOHHbjsAzBUDH9NOOI+Oud2PA293fYNjJQD8JQDKgABIgADI4+URY5tHfbjl8YX4m4g52GfjKXvbj9cjAA6MmO+ZY263e8C/f1WD44xZH4MAyCMBUAYEQAIEQB73ihjbDi2PLcZVI+ZxToOP6xEA10fMdduZtwndTvizDY4zZn0MAiCPBEAZEAAJEADNG7v17/ktji3WwyLmsU2Dj+sRAGZo8MypPiDhFxT6fcPjJAD8JQDKgABIgABo3nMixrWg+mSLY4vVdgaM+SXDfQ09rlcAfDbwcY2TJeySwq9reIwx62MQAHkkAMqAAEiAAGjet0WMa/cWxzWsMXsZNHWC9wqA30fMdVHpfX9jMo5seIwx62MQAHkkAMqAAEiAAGhW2/p3rohx/bSlcaV4bMR81mzoMb0CwHxdxHwnw949+UOGMRIA/hIAZUAAJEAANOtXI8a0hPpsS+NK8a/Se3s/lCZ+7uYZAEdGzHUycm3vTAD4SwCUAQGQAAHQrOtFjOnDLY2pCd8UMa+PNfB4ngFwt4R/72Eyjs0wvpj1MQiAPBIAZUAAJEAANOetEveHo6l94dvw1Ih5LS693fFSHs8zAMwNIubbj9nVezONjwDwlwAoAwIgAQLA54SwgjS/f35Op6vzRszvR4mP5x0AMd976EeuSyXHrI9BAOSRACgDAiABAqAZ7Y/5chHj+XTm8eRwWsT8dkp8LO8A+LM6R8R8JyLnH95aA2Az6W0x7e0nGpg3AVAGBEACBEAzxlw9z7gx83hyeG7E/OzncQ8lPJZ3AJhTI+Y7nlkbBeUaW60BUAr2UV3qvAmAMiAAEiAAmvF9EWNp6qdybWsbFi0UMc+TEx6rhAA4MWKu49ky47hi1keEAJgIAqA7EAAJEADp2h/GKRFjOSrjWHL7noh5bpTwOCUEwIMSt6fDWE7POK6Y9TEIgBdCAHQHAiABAiDdsyPGYSeeuzKOJbcXR8719iEfp4QAMLeMmO8s2ri6IwGQBgHQHQiABAiAdLeJGMcbMo6jDW3joiUi5nvwkI9TSgCcHjHXWbRxTBEAaRAA3YEASIAASNO+6BXzNvHXMq5HW+4bMd9lZbifO5YSAI9I3M8fjbMyjylmfQwC4IUQAN2BAEiAAEjzuIgx2DfD78+4Hm15VcScjUuHeIxSAsCMOYDtZPRYC2MiANIgALoDAZAAAZDmOhFj2DrzerTpihHz3nOI+y8pAM6KmOvOLYwnZn0MAuCFEADdgQBIgAAY3lsjHt/4doYxePmpiHkvqD4eef8lBYCNff7A8VzQwnhi1scgAF4IAdAdCIAEag6AP0n4zl9HZ3j8KyIe33y0gDVryjsi535b5P2fGXi/V7Q031MCxmK7yz3V0nhC18fMfc2J8yPGUorsBNgdCIAEag4AREQvCYAyIAASIAAQEeMlAMqAAEiAAEBEjJcAKAMCIAECABExXgKgDAiABAgARMR4CYAyIAASIAAQEeMlAMqAAEiAAEBEjJcAKAMCIAECABExXgKgDAiABAgARMR4CYAyIAASIAAQEeMlAMqAAEiAAEBEjJcAKAMCIAECABExXgKgDAiABLYT/wVCRKzNAwVKgABI4M3iv0CIiLW5j0AJEAAJrCP+C4SIWJvvEigBAiCBKeK/QIiItbm+QAkQAIncI/6LhIhYi8+pCwmUAAGQyHfEf5EQEWvxOoFSIAAS2U38FwkRsRYPFygFAiARW8BHxX+hEBFr8FUCpUAANMAJ4r9QiIil+zOBkiAAGmBZdYb4LxYiYsluKlASBEBDHCX+i4WIWKrfEygNAqAh5lfvEP8FQ0QszYfVZQRKgwBokLXVp8R/0RARS3KaQIkQAA2zk/Q2uvBeOETEEvyMQKkQABnYW4gARMSjBUqGAMjEjurj4r+AiIht+6z6MYHSIQAyspp6o/gvIiJiW9r1Ufi5Xx0QAJmZS/2k+oj4LyYiYi6fVr+kLihQCwRASyysHqzeLf6LiojYlA+oX1aXEqgNAqBlZlffqH5OvUx6B4/3IiMihjpd/aV6jLql9N7lhDohAApgAXVpdfkR8njxf3L18/YC1gexNJdTpwh0CQIAXLBLgno/ufp5c8Z5AwCUAgEALhAAAAC+EADgAgEAAOALAQAuEAAAAL4QAOACAQAA4AsBAC4QAAAAvhAA4AIBAADgCwEALhAAAAC+EADgAgEAAOALAQAuEAAAAL4QAOACAQAA4AsBAC4QAAAAvhAA4AIBAADgCwEALhAAAAC+EADgAgEAAOALAQAuEAAAAL4QAOACAQAA4AsBAC4QAAAAvhAA4AIBAADgCwEALhAAAAC+EADgAgEAAOALAQAuEAAAAL4QAOACAQAA4AsBAC4QAAAAvhAA4AIBAADgCwEALhAAAAC+EADgAgEAAOALAQAuEAAAAL4QAOACAQAA4AsBAC4QAAAAvhAA4AIBAADgCwEALhAAAAC+EADgAgEAAOALAQAuEAAAAL4QAOACAQAA4AsBAC4QAAAAvhAA4AIBAADgCwEALhAAAAC+EADgAgEAAOALAQAuEAAAAL4QAOACAQAA4AsBAC4QAAAAvhAA4AIBAADgCwEALhAAAAC+EADgAgEAAOALAQAuEAAAAL4QAOACAQAA4AsBAC4QAAAAvhAA4AIBAADgCwEALhAAAAC+EADgAgEAAOALAQAuEAAAAL4QAOACAQAA4AsBAC4QAAAAvhAA4AIBAADgCwEALhAAAAC+EADgAgEAAOALAQAuEAAAAL4QAODCoeL/5OrnbRnnDQBQCguJ//l2kNvlmzp48hnxf3L1876M8wYAKIUlxf98O8gt8k0dPDlA/J9c/Xws47wBAErh1eJ/vh3k1HxTB0/2F/8nVz+fV+fIN3UAgCJYT/zPt4PcMN/UwZO9xP/JNcjF800dAKAIthb/c+0g18w3dfBkmvg/uQa5cb6pAwAUwcfE/1w7yKXyTR082UT8n1yDfG+2mQMAlMHJ4n+uHeR8+aYOnqwm/k+uQX4h39QBAIrgMvE/1/bziYzzBmdeKv5PsEH+d76pAwC48yJ1uvifa/t5V7aZQxHYz+28n2T9fFKdN9/UAQBcWV/8z7OD/Hm+qUMJ3CT+T7JB8htUAOgqnxL/c+wgT803dSiBi8T/STbIw/NNHQDAlUvE/xw7yIPyTR1K4Bjxf5INkosCAUAXse9gzRD/c+wg/y3b7KEI9hD/J9lkrpNt9gAAPuwn/ufWyVw12+yhCOyPq/eTbDK/km32AAA+XCf+59ZBPqXOmW32UAS2ycOz4v9kG+QDwq8BAKA7rCH+59XJ/E222UNR3CD+T7bJ3Cfb7AEA2uU74n9OncxvZJs9FMWJ4v9km8w/qXPlWgAAgJZYUcp/19XcPdcCQFnsJv5PthC5NgAA1M5p4n8uDXHlTPOHwlhB/J9sId6jLpBpDQAAcmOX1q3h1f/f1NkyrQEUyB3i/6QL8ehcCwAAkJHZ1SvF/xwa4pmZ1gAK5Wvi/6QL8Rn1NZnWAAAgF3uJ//kz1N0yrQEUyrbi/6QL9ZfCFwIBoB6WUR8U/3NniM+rS+RZBiiV+aW38YP3ky/UY/IsAwBAo9hmOleJ/zkz1OvyLAOUzvfF/8kXU6nb5VkGAIDG+KL4ny9j/ESeZYDS2Vn8n3wx2ltqr86yEgAA6ewkvRcr3ufKGFfIshJQPPYTuyfE/wkYo/00cJkciwEAkMBUqetjVfOXWVYCquFs8X8SxnqTukiOxQAAGIK11EfE/9wY6/45FgPq4c3i/yQcxl8L31wFAH/Wl94FzLzPibHauxWLZlgPqAjb/el28X8yDuOd6krNLwkAQBCbS52v/M3vZlgPqJBPi/+TcVjvU9dpfkkAAAaypzpD/M+Bw7p580sCNbKY1PdlwLHaboEHCHtZA0B+5lGPFf/zXoo3S2+rYoB/cLL4PylTPU+d0vTCAADMZFX1RvE/16W6R9MLA3Vjl4J8TvyfmKnaRwK2rzXvBgBAU8yrHiL1/cxvIv8ivXcxAP6FC8T/ydmU/62u0uzyAMAIYtdNsS8ce5/TmvLjzS4PdIXVpRvvAszS5nKh+romFwkARgL7klxNe/qH+DfpXQcGYELOFf8naY4QOF/dTPjiCwD058Xqu6S3z4j3eSuHbPwDA1lNfVb8n6i5vFv9/Mx5AgDY1fvs1f7p6qPif47KpW2jPm9DawYd5iTxf7K24b3qGep71BXVORpYOwAoG/sjaFv3flT9oXT7j/5Yd2ti8aD7LK5OF/8nbNvaN3xvUM9Rv6AeLL2TxF7qjuoOiFiFu6jvl97+IIdL73f7P5bel/m69D2nUK8WfhkFEfyH+D9pERExTbs88UYCEMFc0o0NLxARR1nb5A0gmvWk218IRETssrYx2ksEYEiOE/8nMSIixmvfhwAYmgXUO8T/iYyIiOHani4AyawjdV/2EhFxlLTf/C8iAA1xiPg/qRERcbD2M0fb9RSgMV6kXir+T25EROzv5wQgA7ZBkL215P0ER0TEF3qJsKMpZGR99Wnxf6IjIuI//aO6qABkxrbY9H6yIyJiz8eEy55Di9he+d5PekTEUde+9LedALSIXVji2+L/5EdEHGX3FQAH7LKaPxf/AwARcRQ9QgAcebF6ufgfCIiIo+TxAlAAdrGJ34j/AYGIOAqeps4uAIVgEXC1+B8YiIhd9r+ktzEbQFEspF4h/gcIImIXtbf9eeUPxWLfCbhY/A8URMQueagAVIC9PXWC+B8wiIi1+4y6twBUxn7S26TC+wBCRKzRR9S3CkClbK0+JP4HEiJiTf5eXVUAKmcl9QbxP6AQEWvwAul9qRqgE8wvvZ+veB9YiIil+pS6v/S2WgfoHO9QHxT/Aw0RsSR/p64pAB1nGeEaAoiIpn1R+jjpXVsFYCSwt7h2Ux8Q/wMQEdHDW9VNBGBEeZn6XfE/EBER2/Jx9TPqXAIAsp56lfgfmIiIOb1QXVYA4F+wPa7fq94t/gcpImKT/kLdSABgIPa22F7qveJ/0CIipni9uoMAQBTzqfuqd4r/QYyIGOP/SG8nVH7TD5DAHOqO6tXif1AjIvZzhnqWuo4AQOOsoh6h3i/+Bzsiomk/5ztEXUoAIDu2acZO6vnqk+J/AkDE0fIv6vHqxsLb/ABuLKDuIr39BP4u/icGROymt6lfUadK76NJACgIOyhfr35W/Zn6mPifNBCxTu9Tz1X3UVcUAKiKF0nvCzn/rp4kvS8SEgWIOF57S/+n6tHqu9QVBAA6h204tKz09uDeXXrvFpwqvWtwX6HeLL2TgV218CHxPzEhYrzPSu8YNv+k/lZ6FyGzV/T22f0npPc9ItuF9KUCWfh/uyBDeKUhhY0AAAAASUVORK5CYII=;" parent="g6LQHu9N5bepaxgSTT7o-4" vertex="1">
          <mxGeometry x="29.509999999999962" y="10" width="36" height="36" as="geometry" />
        </mxCell>
        <mxCell id="HqxaJNys2O56Uum3NzPm-20" value="" style="shape=image;verticalLabelPosition=bottom;labelBackgroundColor=default;verticalAlign=top;aspect=fixed;imageAspect=0;image=data:image/png,iVBORw0KGgoAAAANSUhEUgAAAgAAAAIACAYAAAD0eNT6AAAABGdBTUEAALGPC/xhBQAAAAFzUkdCAK7OHOkAAAAgY0hSTQAAeiYAAICEAAD6AAAAgOgAAHUwAADqYAAAOpgAABdwnLpRPAAAIABJREFUeJztnXncrVPduL/ImOGEUJmHJEPJmKE4VDJFJ/IihZLqRao3pUKoFyVRlCHhrWQsUb+Ut15DhugtITIlkYpwzI7h9/t+2+f8eno8ez9r7XWv+7vWva/r87n+O3vvtdbZ9/1ce1q3CEBZzKGuoG6m7qkerp6mXqheqf5efUB9UJ2u/l9EJx9X/6zeol6tfks9QN1KXUoAAKAvc6rrqfuqp6jXqk+I/4kdsQlvVY9Vt1DnFQCAEeZF6huk96r+UuGPPY6Oj6rfUF8vAAAjwhT13eo56sPifyJG9PZGdR91PgEA6BgvVndVf6A+Jf4nXMQS/av6H+r8AgBQOWuqJwiv9BFjvF/9hDqPAABUhH2u/071GvE/kSLW7J3q2wUAoHDsbcv91bvE/8SJ2CUvUVcTAIDCmEvdS71P/E+UiF31GfUIdW4BAHDGNujZW71X/E+OiKPi9dL7bg0AgAu2K99vxf9kiDiKzlAPld7GWQAArbCker74nwARsbfd8LICAJCR2dTd1L+L/0kPEf+pXf9iJwEAyMBy6mXif6JDxP5+Vdg3AAAaZAf1IfE/uSHi5P5a+EgAABJZUD1L/E9oiBinbSdsF9gCAIhmZfUm8T+RIeJw2p4BBwgAQAT2lr9dptT7BIaI6Z4ivY26AAAGsp/6vPiftBCxOa9QFxUAgAmwi/ecKP4nKkTM423qKwUAYAx2AR+70Ij3CQoR8/o3dQMBAFCmqFeK/4kJEdvxSXVHAYCR5iXqNeJ/QkLEdrXv+XxYAGAkWVh6VxTzPhEhop+fEQAYKWyDH175I6Jp2wfPLgDQeeYT9vRHxH/1v4TLCgN0Gqv888T/ZIOI5XmROq8AQCf5kvifZBCxXK+W3veDAKBDfFD8Ty6IWL52NcHFBQA6gW388bT4n1gQsQ7vVFcUAKial6v3if8JBRHr8l51VQGAKrH9/e0iIN4nEkSs0/vVNQUAquMw8T+BIGLdPqSuKwBQDRuqz4r/yQMR6/dhdX0BgOKxnf7sSzzeJw1E7I7ThSsJAhTPCeJ/skDE7vmYuqkAQJHY23TPif+JAhG76ePqZgIARTG3erP4nyAQsdtaBGwuAFAMB4r/iQERR8On1G0EANx5mfqI+J8U2vZJ9TfqWepR0ru++UfUvdQd1R0Qh3An6X2X5i/i/xwvWYuArQUAXDlV/E8GbfhH9Zvqu9TlheuYQ17mkN4fuF+J/3O/VG2b8bcNu8AAkMYa0u0v/t2lHqq+qqH1AohlNnVX6f0Uzvt4KNEZ6rShVxcAhuZ74n8CaFoLmnPUTYRX+VAOdoGc68X/+ChRi4Dth19aAIhlLfV58T/4m/zDf7a6SpOLBNAgi6o3iP+xUqIWAdsNv7QAEMNF4n/QN+VP1JWbXR6ALCyh3iP+x0yJ2ncC+HUAQGZWk268+v+zulvDawOQmzdJN44/IgCgQr4h/gd6qvZ2/0JNLwxAS5wo/sdQqdpPBLcYfmkBoB+LSe838N4HecrJYb/GVwWgXWz/jcfF/3gqVXsnYKuhVxcAJuQg8T+4h9Xe8l+r+SUBcOFL4n9MlewTwrbBAI1hP4u7S/wP7GG0yxSv2PiKAPjxSuG7ACERwAWEABrAPlfzPqCH0XZTWzzDegB4c5n4H1+lax+VbDLk+gLATM4V/4M51hvVhXMsBkAB2PdZvI+xGnxMfcOQawww8iwo9X3570/q0jkWA6AQ7LoU3sdZLfJOAMCQ2H7k3gdwjA8Im/vAaHCH+B9vtWhXLt1guGUGGF0uFP+DN1T7YhRXCYNR4Tvif8zVpH0c8MahVhpgBFlAer+f9z5wQ/1CnmUAKJIPi/8xV5u8EwAQiF1kw/uADfVqdc48ywBQJFPF/7irUYuADYdYb4CRopZtR59R18i0BgClsqT4H3u1ah8HbBK94gAjxF3if6CGeFSm+QOUzGzqo+J//NUq7wQA9MF2z/M+QEO8W50/0xoAlM4t4n8M1iwRADAB7xb/gzPE3XMtAEAFXC7+x2DtEgEA4zhJ/A/MybRX/3PlWgCACjhf/I/DLsh3AgDGYFvpeh+Uk/mhbLMHqINavqhbg7wTAKDMpz4n/gfkIO9X5821AACVcLj4H4tdkgiAkWcd8T8QJ/O4bLMHqAcuCkQEADTKe8X/IJzMtbLNHqAe9hD/Y7GL8p0AGFm+LP4H4CBvyjd1gKrYRfyPx67KOwEwklwk/gffIA/NN3WAqpgm/sdjlyUCYOSwV9jeB94gN8k2c4C62Fr8j8euSwTASGGff3kfdP18Up0n39QBquLN4n9MjoJ8JwBGgsXE/2Ab5CX5pg5QHW8Q/2NyVOSdAOg8q4v/gTZILvwD8E9eL/7H5ChJBECn2VT8D7JB7plv6gDVsb74H5OjJh8HQGfZQfwPsEFS3wD/ZD3xPyZHUSIAOsle4n9wDXKxfFMHqI51xf+YHFX5OAA6x/7if2D183l19nxTB6iOGrbt7rK8EwCd4gDxP6j6+WjGeQPUyNrif1yOukQAdIbPiP8B1c/7Ms4boEbsmhjexyXycQB0hMPE/2Dq560Z5w1QIwRAORIBUD0lX1/8dxnnDVAjBEBZ8nEAVA0BAFAPBEB5EgFQLQQAQD0QAGVKBECVEAAA9UAAlCvfCYDqIAAA6oEAKFt7J2DTvv97AIVBAADUAwFQvo+rU/v9BwKUBAEAUA8EQB1aBGzW5/8QoBgIAIB6IADq0SJg84n/GwHKgAAAqAcCoC6fUN804f8kQAEQAAD1QADU51Pq1hP9ZwJ4QwAA1AMBUKdPq9tM8P8J4AoBAFAPBEC9WgRs+8L/UgA/CACAeiAA6tYiYLsX/K8COEEAANQDAVC/FgHbj/+PBfCAAACoBwKgG85Q3y4AzhAAAPVAAHRHi4BpAuAIAQBQDwRAt3xWfacAOEEAANQDAdA97Z0Afh0ALhAAAPVAAHRT9gkAFwgAgHogALqrRcBWAtAiBABAPRAA3dauHcBVBKE1CACAeiAAuq9dRXBTAWgBAgCgHgiA0dAi4I0CkBkCAKAeCIDR8TF1YwHICAEAUA8EwGj5sLquAGSCAACoBwJg9LQIWFsAMkAAANQDATCaPqC+RgAahgAAqAcCYHT9m7qyADQIAQBQDwTAaHu3urQANAQBAFAPBADeqC4sAA1AAADUAwGA5jXq/AKQCAEAUA8EAM7yEnVuAUiAAACoBwIAx3q+OocADAkBAFAPBACO92sCMCQEAEA9EAA4kYcJwBAQAAD1QABgPz8qAJEQAAD1QABgP59X3yUAERAAAPVAAOAgZ6ibC0AgBABAPRAAOJnT1dUFIAACAKAeCAAM8Q/q4gIwCQQAQD0QABjqtep8AjAAAgCgHggAjPEsdTYB6AMBAFAPBADGeqAA9IEAAKgHAgBjfU7dWgAmgAAAqAcCAIfxEfXVAjAOAgCgHggAHNZb1IUEYAwEAEA9EACY4tkCMAYCAKAeCABM9X0CMBMCAKAeCABM9Un1NQIgBABATRAA2IQ3CZsEgRAAADVBAGBTnigw8hAAAPVAAGBT2uWDtxAYaQgAgHogALBJ71GnCIwsBABAPRAA2LQnCYwsBABAPRAA2LT2UcDmAiMJAQBQDwQA5vBmdU6BkYMAAKgHAgBzub/AyEEAANQDAYC5nK4uITBSEAAA9UAAYE75QuCIQQAA1MOq4n9cYnd9Vl1JYGQgAADqYWnxPy6x254iMDIQAAD1YN/UniH+xyZ2V3t+LScwEhAAAHVhP9nyPjax235dYCQgAADq4lTxPzax2z4hbBE8EhAAAHWxi/gfm9h99xboPAQAQF0sqD4u/scndttrBToPAQBQH6eL//GJ3fe1Ap2GAACoj1XU58T/GMVue4hApyEAAOrkDPE/RrHbXiPQaQgAgDqxfdsfEv/jFLurvcv0UoHOQgAA1Ms08T9OsdvuLNBZCACAujlS/I9V7K5HC3QWAgCgbmYTfhWA+bxYoLMQAAD1YxFgr9S8j1nsnvcKdBYCAKA7vF99UvyPXeyWbAvcUQgAgG6xqnqp+B+/2B1XEugkBABA97CPBLZXfyX+xzHW79oCnYQAAOg266rHqreI/zGNdbqZQCchAABGh5epm6t7qQeon1ePwH/4VfVE9Sz1PPWn6mXqdert6qPif070cjuBTkIAAACEMa+6rDpVfa/6n+qP1L+K//kyp29vYO2gQAgAAIB0llLfo56pPiD+508CACaFAAAAaJY5pPdRy9nqM+J/LiUAYEIIAACAfLxSeiHwvPifUwkA+BcIAACA/Gyk/kH8z6sEAPx/CAAAgHZ4iXqB+J9bCQD4BwQAAEB7zC69Lwp6n18JACAAAABaZk7p/XzQ+xxLAIw4BAAAQPssIvXsH0AAdBQCAADAh13F/zxLAIwwBAAAgB+/Ff9zLQEwohAAAAB+fEj8z7UEwIhCAAAA+LGg+oT4n28JgBGEAAAA8OVS8T/fEgAjCAEAAODLkeJ/viUARhACAADAl3eI//mWABhBCAAAAF/WF//zLQEwghAAAAC+rCz+51sCYAQhAAAAfFlM/M+3BMAIQgAAAPjyYvE/3xIAIwgBAADgCwEALhAAAAC+EADgAgEAAOALAQAuEAAAAL4QAOACAQAA4AsBAC4QAAAAvhAA4AIBAADgCwEALhAAAAC+EADgAgEAAOALAQAuEAAAAL4QAOACAQAA4AsBAC4QAAAAvhAA4AIBAADgCwEALhAAAAC+EADgAgEAAOALAQAuEAAAAL4QAOACAQAA4AsBAC4QAAAAvhAA4AIBAADgCwEALhAAAAC+EADgAgEAAOALAQAuEAAAAL4QAOACAQAA4AsBAC4QAAAAvhAA4AIBAADgCwEALhAAAAC+EADgAgEAAOALAQAuEAAAAL4QAOACAQAA4AsBAC4QAAAAvhAA4AIBAADgCwEALhAAAAC+EADgAgEAAOALAQAuEAAAAL4QAOACAQAA4AsBAC4QAAAAvhAA4AIBAADgCwEALhAAAAC+EACOzK4up26qTlN3GCHPE/8nVz/vKWB9EEt0c3VldU6BLkAAtMxS6sfVn6qPi/8CIyLGOkO9Qv2suopArRAALbGhepH6nPgvKiJik/5C3UadTaAmCIDMvEI9Q/wXEhExt9eq6wjUAgGQERv8Q+K/iIiIbfmMeoj0vuMEZUMAZMDeBjtS/BcPEdHLs9S5BUqGAGgY++N/kvgvHCKit/Zl53kESoUAaJgjxH/REBFL0X7yy8cBZUIANIj9TtZ7wRARS/PTAiVCADTEkup08V8wRMTSfFZdX6A0CICGOFf8FwsRsVT/V51DoCQIgAZYV/wXChGxdHcVKAkCoAG+J/4LhYhYunahLXYLLAcCIJHFpbfxhfdCISLWoG2LDmVAACSyn/gvEiJiLR4vUAoEQCJ2gR/vRUJErMVbBUqBAEiEvf4REeNcQqAECIAEXib+C4SIWJubCJQAAZDABuK/QIiItbmHQAkQAAlsIf4LhIhYmx8WKAECIIHtxX+BEBFr81MCJUAAJGCD814gRMTa5OJAZUAAJEAAICLGSwCUAQGQAAGAiBgvAVAGBEACBAAiYrwEQBkQAAkQAIiI8RIAZUAAJEAAICLGSwCUAQGQAAGAiBgvAVAGBEACBAAiYrwEQBkQAAkQAIiI8RIAZUAAJEAAICLGSwCUAQGQAAGAiBgvAVAGBEACBAAiYrwEQBkQAAkQAIiI8RIAZUAAJEAAICLGSwCUAQGQAAGAiBgvAVAGBEACBAAiYrwEQBkQAAk0HQDPqeeoZwd6rvp8w2No2j9GzMe8uqVxfU1dK8BtC1jDWK+OXPPxXlrAHJrwlsR1MO/IPMbrIsZyawFr2pQEQBkQAAnkeAcgdsI/zDCGJt0xcj4XtDSu1SLG9KuWxtSUu0TMbSKmqE8VMI9Ut0tcB+PEzGN8f8RYjsk8ljYlAMqAAEggRwDcoM4eMYapGcbQlPbq6UURc1lT2nlH49qIMRn7tTCmJk0NAOP7BcwjxenqPA2sAwGQRwKgDAiABHJ9ByD2lUupr1A/EDmPtl797xs5rkXUp1saWxM2EQDvLGAeKZ7WwBoYBEAeCYAyIAASyBUAv1ZnixjHLpnGkeJf1Xkj5tDWq/9n1MUjxjWLtuKkCZsIgPnURwuYy7C+tYE1MAiAPBIAZUAAJJDzVwDbRoxjTul92c77PyvlAG/rD+xFkeOaxbSWxteETQSA8a0C5jKMD6pzNbQGBEAeCYAyIAASyBkA9rZ+zLsAH8s4llgfk97b5qG09erffGfEuMZif1Dub2mMqTYVAFsVMJdhPLGh+YsQALkkAMqAAEgg9z4AW0WMZQH14czjCfWYiHEbbb36ty+GzRc5trEc39I4U20qAOydpVqiZ6xTG5q/QQDkkQAoAwIggdwBYL8RjnkX4IuZxxPiDHWZiDG3+er/lIhxTcR6LY0z1aYCwPh6AfOJ8T51jgbnTwDkkQAoAwIggTZ2Aoz5MtOS0vsD7PkfdkbEeI02v1z3xsixTcTNLY53WJsMgDcWMJ8Yj2tw7gYBkEcCoAwIgATaCICrI8f07RbGNMjXRoy1zVf/9iXJmP0V+nFgS+NNsckAsHeg7ipgTqFu2ODcDQIgjwRAGRAACbR1LYC3RIzpdS2NaSL/T8Q4jTY3m/lc5Nj6sZT0tmz2PjAGGRIAK0j4x0slfLQU4t0SFnkrBs7bIADySACUAQGQQFsBcGXkuH7W0rjGu2nEGC1U2ryOwasCxrSshO1c+NMWxz2MIQFgJ+ANAv6dsVYBcwrx6IC52PcDfhw4b4MAyCMBUAYEQAJtXg3wTRHj8vj51i8jxme0+dl/6Njep64e8O92a3HswxgSAB9Wjw34d7P4XQHzmsy1A+axmcQ9VwmAPBIAZUAAJNBmAPwiYlz21u6NLY7NnBYxvjY/+zf3CRyXfYHx3QH/zg6aR1ocf6whAbCnxH1j/pAC5jVIu+5EyEcaJ6mXB87ZIADySACUAQGQQJsBYG4WMbY9WxyXXaY05qdXbX72b7+KeGnguO5STwj8t6e1OIdYQwJgx5n/NvQ38ysXMK9Bfj5gDravwQPqJYFzNgiAPBIAZUAAJNB2AFwRMba51T+3NK69IsbV9qv/HwSOa5WZ//6mwH9f8lUYQwJgy5n/NmbXvFIvOmWuETD+WR+N/TBizgRAHgmAMiAAEmg7AMxNIsb36RbGE3vRn7YvqrND4Lg+MvPfW5yEXCzI3m6+s+W5hBoSABvP/Lcx++aXtN30WG8OHP8ZM//9+YH/3iAA8kgAlAEBkIBHAPw8Yny2H//jmcdzYMR42v7mv22NHHpN+LHf7N8p8DaHtziXGEMC4LVj/v2WgfMt9SeQBweM3Z4H02f+++8GztcgAPJIAJQBAZCARwCYb4gYY8796+2LcC+JGEvbr/5PDhyXhdLTY253ZuDtXtnyfEIN3Qdg1r8/PXC+xqUFzG+8IT/x3H7I+RIAeSQAyoAASMArAGK+xLSc+mymcXwxYhxtf/ZvhobS3uNuZ2ET+s7BVS3PKcSQAFh83HxDP8YZv1be/m/guM8ec5uTAm9jEAB5JADKgABIwCsAzI0jxnlehse3b9cvHTGGtl/93yXhW/9ePsHtQ98W/0DL8woxJADmG3eb0ANtYfnXd0u8PSBgzHaSe2zMbb4SOFeDAMgjAVAGBEACngHwk4hxbpDh8b8Z8fger/4PCxzb0n3GFvrxgX0E8lTLc5vMkACwLzGOfWforMD5Gj8sYI6zXCFgvLuMu03MO1cEQB4JgDIgABLwDABzo4ixXtng49ofzNUiHrvtV/9myOfCxif73P5+CdsW2DjHYX6DDL0Y0KwvxZn2ZdH5A2+3awFzNEMvlPWDcbeLuS4EAZBHAqAMCIAEvAMgZk/zaQ0+7oURj+vx6v+aiPHdMOB+Qr9DsE3L85vM0AC4Z9ztdg683fi31L3cP2CsU+SF79AcFDhPgwDIIwFQBgRAAt4BYK4fOFbbqe/2hh4z5lcIHq/+/z1wbGtMcj/HBN6P7TD3V4d59jM0AMbv739B4O2Ms5znaD9HXDJgnLtPcNtPRsyTAMgjAVAGBEACJQTAjyLG+6EGHu+qiMdr+3f/ZszWv/85yX2FXl7WKOnkHBoA1427nb1SnhJ42+2c53hZ4DgvnuC2Hw+8rUEA5JEAKAMCIIESAsBcN3C89s3v+xMfa7vw5XF59R/zKjbkHZFNAu9rTYe59jM0ACb6Xsgegbe13QP/7jjHDwaM0ULwmQlu+5HAORoEQB4JgDIgABIoJQBiPpNP2b3uFgl/Rezx2b/5jsDxrRt4f6G/BjCud5jvRIYGwP9McNuLI+b7Daf52a8XQrZr7veO134RcyQA8kgAlAEBkEApAWCuEzjmxdQnh3yMPSPWxuPVv239G7qhzdGB9zk94j5L2Ss/NAAmens89I+rsbnT/EJ/AntZn9uHfkfEIADySACUAQGQQEkBEPPW9zCv3P4i4bvjeb36D72ynf0G/q6I+50WeL/2h3Oit5zbNjQALuxz+5C31w17N+heh/mFhOjLpf91Cz4QOD+DAMgjAVAGBEACJQWAuXbguO038rEXdQnZcW0WHq/+zdB9ETaMvN+Yq8f9yGnuYw0NgH47RF4aMd9jW56bfclz4YBxfXTAfcRcvpoAyCMBUAYEQAKlBcD3IsYes5ubvQ0e+u1wr1f/d0nvlX0Ix0Xet219u0jgfe/kMPfxhgbAmX1uH/oTO2P9lucW+n2XXw64j5iPsgiAPBIAZUAAJFBaANgf3rUCxz414n6PjFgTr1f/hwaOb9i3rUNfNdrHJA85rcEsQwPgtAH3EfNN+dtanNuuAeNZXgZH6Lsj5kYA5JEAKAMCIIHSAsA8L2L8vwq4P3vLdanA+/N69W+uHDjGTYa8/5i3xU92WoNZhgbASQPuI2Y3xc+1NC/78uqCAeP51CT3ExIRsyAA8kgAlAEBkECJAWB/gNcIHP/4i6RM5KkR6+H16j90T3jjhCEfw9Z12cDH2MhpHWYZGgBfnWS+ywfez2otzSs0bif7OWbo+hgEQB4JgDIgABIoMQDMcwLHb1vY3j3gfuyPwCqB9+Wx698sPxQ4Rru4T8qWvQcGPo59F6GpbZeHMfQP3JcnuZ+YLXN/28K8dgwYxyoB90MA+EsAlAEBkECpAWB/iFcPnMOg365/P2ItvF7920cUiwaO8U2Jj/W7iPU42Gk9zNA/cJP9Qbk+Yr79rqrYlHbxoRcHjOPQgPsiAPwlAMqAAEig1AAwvxs4hwWkt4HORPexQeB9eH72HxMppzTweGsGPtayjmvSVACYqwbe1zKZ5/vtwHH8PuC+CAB/CYAyIAASKDkA7KdcqwXO44sT3P7yiHXwevVvhm7SYx93PNDA430xYl367USX2yYD4LMR853o2gJNuW3A468VeF8EgL8EQBkQAAmUHADmdwLnYb/5njHuttsE3tbz1f+D6tyB49yyocf8s/QurRzCnk7r0mQA3B54X8Y+meZjP6sM+X8+KvD+CAB/CYAyIAASKD0AbF/3VwXO5dtjbnezhF/0x/PV/9cDx2ic3uDjbh74mPaTtccd1qXJADBfF3h/dp2JHFshh/wSxb54+YfA+yMA/CUAyoAASKD0ADC/FTiX18g/X8nvHngbz1f/5oaB47RXj/2+5zCM3wx8XOM7DuvSdADEbAT1kwzzeUvA48Zs70wA+EsAlAEBkEANAWDvAoRukvMz9R7pXes9BM9X/3+Q8K1/39bwYz+izhf42Fs4rE3TAWA/FQ1d690bnsv90vv+xmTEbO9MAPhLAJQBAZBADQFgnh44n62k97PAELxf/R8SOE5j7McbTfnOwMe2j1L+1OK6mE0HgBn6ixD72OOJBufytYDHjN3emQDwlwAoAwIggVoCwD6XXSlgPvYqL+S31obnq//nA+djzCu9V+xNjyH0ojRG6JfTmjJHABwbMd/zG5zLpgGPt2nkfRIA/hIAZUAAJFBLAJjfbHDe3q/+r4wY67RMY7CoWixwDK9ucW3MHAFwn4T/+mGHhuYR+piDrmmQsj4GAZBHAqAMCIAEagoA+y5A6KvmyfB89W9+IGKsZ2ccR+gWxEbIhZeaMkcAmFMD79euiNjEly6/HPBYw+zvQAD4SwCUAQGQQE0BYH6jgTl7v/p/WsK3/rUv6j2WcSwx70Ts28LazDJXAJwYMd8zGpjH6wMeZ6sh7pcA8JcAKAMCIIHaAsA2+wm9wls/vF/9nx8x1p1aGE/ouyqLSC9e2lijXAFgGy+F/kLkrYlzCP3lwTChQQD4SwCUAQGQQG0BYJ6UMF/vV//m9hHj/V4L4zkoYjxtxVOuADC3DLzv1CsvHhXwGMN+1EAA+EsAlAEBkECNAWDvAiw75Hy9X/3/XcK3/jUOUY/IbMz3Edp6vuQMgNCflBonJMxh7YD7337I+yYA/CUAyoAASKDGADBjttCdRQmv/kN+E14y9va5bWyTe51yBoD9pHLewPvfeMjxh15/YNgveBIA/hIAZUAAJFBrAAzzLoD3q38zdDOakjle8q9TzgCIOShj9ucf62EB920nrmG/4EkA+EsAlAEBkECtAWCeEDHPpcX/1b+9KgzdjrZk1pX8a5U7AM6KmO8wmyCtHnC//zbk2GPWxyAA8kgAlAEBkEDNAXBtxDzb3shmIg+OGG/p2NUWc65V7gCwKxzOH/gYa0be9+8C7zflHSkCwF8CoAwIgAQIgPZ8ZcR4S+dAybtWuQPA3DlivjdF3G/IH4Yp6lMJYycA/CUAyoAASIAAaMcrIsZaA6+Q3s6MudarjQC4IGK+B0Xcb0jo7ZEw7pj1MQiAPBIAZUAAJEAAtGPMSbIWLpF869VGANimRgsHPs4KEvYdkl8F3t/FCeOOWR+DAMgjAVAGBEACBEB+7Q/NIhFjrYXdJN+atREA5h4R87024P4+HnA/L5XehZjaWB8tFgh3AAARJ0lEQVSDAMgjAVAGBEACBEB+z4sYZ03YgZfjMsVmWwFwccR8PzLJfdk7BMsG3M8HE8ccsz4GAZBHAqAMCIAECID8bhcxzk+odzj7jojxnha5FqG2FQAxl0S27z08N+C+rgq8n0sTxxyzPgYBkEcCoAwIgAQIgLzGbP1rewTc6TTOsV4UOF5jaqYxtBUA5gcj5vvzAfezX8DtXy6DI6Lp9TEIgDwSAGVAACRAAOT1+IgxbuA0xvHGvCrOFS1tBsClgY9l7NXnPuyP+isCbj/ZxwhNr49BAOSRACgDAiABAiCv60eM8StOY5zImAsEHZ7h8dsMAPvsfunAx3uJTHxJ5J8H3v6aBsYbsz4GAZBHAqAMCIAECIB83ibhW//apWf/4jDGfl4WOG5jJWl+m+U2A8D8SMR8L5zg9nsH3G55aW6dCAB/CYAyIAASIADyeVDE+N7iML5Bhn6jfRZXNfz4bQfANRFz3XncbUM/Mmly90QCwF8CoAwIgAQIgDzaH9DlI8Z3WsvjC/GAiPF/oOHHbjsAzBUDH9NOOI+Oud2PA293fYNjJQD8JQDKgABIgADI4+URY5tHfbjl8YX4m4g52GfjKXvbj9cjAA6MmO+ZY263e8C/f1WD44xZH4MAyCMBUAYEQAIEQB73ihjbDi2PLcZVI+ZxToOP6xEA10fMdduZtwndTvizDY4zZn0MAiCPBEAZEAAJEADNG7v17/ktji3WwyLmsU2Dj+sRAGZo8MypPiDhFxT6fcPjJAD8JQDKgABIgABo3nMixrWg+mSLY4vVdgaM+SXDfQ09rlcAfDbwcY2TJeySwq9reIwx62MQAHkkAMqAAEiAAGjet0WMa/cWxzWsMXsZNHWC9wqA30fMdVHpfX9jMo5seIwx62MQAHkkAMqAAEiAAGhW2/p3rohx/bSlcaV4bMR81mzoMb0CwHxdxHwnw949+UOGMRIA/hIAZUAAJEAANOtXI8a0hPpsS+NK8a/Se3s/lCZ+7uYZAEdGzHUycm3vTAD4SwCUAQGQAAHQrOtFjOnDLY2pCd8UMa+PNfB4ngFwt4R/72Eyjs0wvpj1MQiAPBIAZUAAJEAANOetEveHo6l94dvw1Ih5LS693fFSHs8zAMwNIubbj9nVezONjwDwlwAoAwIgAQLA54SwgjS/f35Op6vzRszvR4mP5x0AMd976EeuSyXHrI9BAOSRACgDAiABAqAZ7Y/5chHj+XTm8eRwWsT8dkp8LO8A+LM6R8R8JyLnH95aA2Az6W0x7e0nGpg3AVAGBEACBEAzxlw9z7gx83hyeG7E/OzncQ8lPJZ3AJhTI+Y7nlkbBeUaW60BUAr2UV3qvAmAMiAAEiAAmvF9EWNp6qdybWsbFi0UMc+TEx6rhAA4MWKu49ky47hi1keEAJgIAqA7EAAJEADp2h/GKRFjOSrjWHL7noh5bpTwOCUEwIMSt6fDWE7POK6Y9TEIgBdCAHQHAiABAiDdsyPGYSeeuzKOJbcXR8719iEfp4QAMLeMmO8s2ri6IwGQBgHQHQiABAiAdLeJGMcbMo6jDW3joiUi5nvwkI9TSgCcHjHXWbRxTBEAaRAA3YEASIAASNO+6BXzNvHXMq5HW+4bMd9lZbifO5YSAI9I3M8fjbMyjylmfQwC4IUQAN2BAEiAAEjzuIgx2DfD78+4Hm15VcScjUuHeIxSAsCMOYDtZPRYC2MiANIgALoDAZAAAZDmOhFj2DrzerTpihHz3nOI+y8pAM6KmOvOLYwnZn0MAuCFEADdgQBIgAAY3lsjHt/4doYxePmpiHkvqD4eef8lBYCNff7A8VzQwnhi1scgAF4IAdAdCIAEag6AP0n4zl9HZ3j8KyIe33y0gDVryjsi535b5P2fGXi/V7Q031MCxmK7yz3V0nhC18fMfc2J8yPGUorsBNgdCIAEag4AREQvCYAyIAASIAAQEeMlAMqAAEiAAEBEjJcAKAMCIAECABExXgKgDAiABAgARMR4CYAyIAASIAAQEeMlAMqAAEiAAEBEjJcAKAMCIAECABExXgKgDAiABAgARMR4CYAyIAASIAAQEeMlAMqAAEiAAEBEjJcAKAMCIAECABExXgKgDAiABLYT/wVCRKzNAwVKgABI4M3iv0CIiLW5j0AJEAAJrCP+C4SIWJvvEigBAiCBKeK/QIiItbm+QAkQAIncI/6LhIhYi8+pCwmUAAGQyHfEf5EQEWvxOoFSIAAS2U38FwkRsRYPFygFAiARW8BHxX+hEBFr8FUCpUAANMAJ4r9QiIil+zOBkiAAGmBZdYb4LxYiYsluKlASBEBDHCX+i4WIWKrfEygNAqAh5lfvEP8FQ0QszYfVZQRKgwBokLXVp8R/0RARS3KaQIkQAA2zk/Q2uvBeOETEEvyMQKkQABnYW4gARMSjBUqGAMjEjurj4r+AiIht+6z6MYHSIQAyspp6o/gvIiJiW9r1Ufi5Xx0QAJmZS/2k+oj4LyYiYi6fVr+kLihQCwRASyysHqzeLf6LiojYlA+oX1aXEqgNAqBlZlffqH5OvUx6B4/3IiMihjpd/aV6jLql9N7lhDohAApgAXVpdfkR8njxf3L18/YC1gexNJdTpwh0CQIAXLBLgno/ufp5c8Z5AwCUAgEALhAAAAC+EADgAgEAAOALAQAuEAAAAL4QAOACAQAA4AsBAC4QAAAAvhAA4AIBAADgCwEALhAAAAC+EADgAgEAAOALAQAuEAAAAL4QAOACAQAA4AsBAC4QAAAAvhAA4AIBAADgCwEALhAAAAC+EADgAgEAAOALAQAuEAAAAL4QAOACAQAA4AsBAC4QAAAAvhAA4AIBAADgCwEALhAAAAC+EADgAgEAAOALAQAuEAAAAL4QAOACAQAA4AsBAC4QAAAAvhAA4AIBAADgCwEALhAAAAC+EADgAgEAAOALAQAuEAAAAL4QAOACAQAA4AsBAC4QAAAAvhAA4AIBAADgCwEALhAAAAC+EADgAgEAAOALAQAuEAAAAL4QAOACAQAA4AsBAC4QAAAAvhAA4AIBAADgCwEALhAAAAC+EADgAgEAAOALAQAuEAAAAL4QAOACAQAA4AsBAC4QAAAAvhAA4AIBAADgCwEALhAAAAC+EADgAgEAAOALAQAuEAAAAL4QAOACAQAA4AsBAC4QAAAAvhAA4AIBAADgCwEALhAAAAC+EADgAgEAAOALAQAuEAAAAL4QAOACAQAA4AsBAC4QAAAAvhAA4AIBAADgCwEALhAAAAC+EADgAgEAAOALAQAuEAAAAL4QAODCoeL/5OrnbRnnDQBQCguJ//l2kNvlmzp48hnxf3L1876M8wYAKIUlxf98O8gt8k0dPDlA/J9c/Xws47wBAErh1eJ/vh3k1HxTB0/2F/8nVz+fV+fIN3UAgCJYT/zPt4PcMN/UwZO9xP/JNcjF800dAKAIthb/c+0g18w3dfBkmvg/uQa5cb6pAwAUwcfE/1w7yKXyTR082UT8n1yDfG+2mQMAlMHJ4n+uHeR8+aYOnqwm/k+uQX4h39QBAIrgMvE/1/bziYzzBmdeKv5PsEH+d76pAwC48yJ1uvifa/t5V7aZQxHYz+28n2T9fFKdN9/UAQBcWV/8z7OD/Hm+qUMJ3CT+T7JB8htUAOgqnxL/c+wgT803dSiBi8T/STbIw/NNHQDAlUvE/xw7yIPyTR1K4Bjxf5INkosCAUAXse9gzRD/c+wg/y3b7KEI9hD/J9lkrpNt9gAAPuwn/ufWyVw12+yhCOyPq/eTbDK/km32AAA+XCf+59ZBPqXOmW32UAS2ycOz4v9kG+QDwq8BAKA7rCH+59XJ/E222UNR3CD+T7bJ3Cfb7AEA2uU74n9OncxvZJs9FMWJ4v9km8w/qXPlWgAAgJZYUcp/19XcPdcCQFnsJv5PthC5NgAA1M5p4n8uDXHlTPOHwlhB/J9sId6jLpBpDQAAcmOX1q3h1f/f1NkyrQEUyB3i/6QL8ehcCwAAkJHZ1SvF/xwa4pmZ1gAK5Wvi/6QL8Rn1NZnWAAAgF3uJ//kz1N0yrQEUyrbi/6QL9ZfCFwIBoB6WUR8U/3NniM+rS+RZBiiV+aW38YP3ky/UY/IsAwBAo9hmOleJ/zkz1OvyLAOUzvfF/8kXU6nb5VkGAIDG+KL4ny9j/ESeZYDS2Vn8n3wx2ltqr86yEgAA6ewkvRcr3ufKGFfIshJQPPYTuyfE/wkYo/00cJkciwEAkMBUqetjVfOXWVYCquFs8X8SxnqTukiOxQAAGIK11EfE/9wY6/45FgPq4c3i/yQcxl8L31wFAH/Wl94FzLzPibHauxWLZlgPqAjb/el28X8yDuOd6krNLwkAQBCbS52v/M3vZlgPqJBPi/+TcVjvU9dpfkkAAAaypzpD/M+Bw7p580sCNbKY1PdlwLHaboEHCHtZA0B+5lGPFf/zXoo3S2+rYoB/cLL4PylTPU+d0vTCAADMZFX1RvE/16W6R9MLA3Vjl4J8TvyfmKnaRwK2rzXvBgBAU8yrHiL1/cxvIv8ivXcxAP6FC8T/ydmU/62u0uzyAMAIYtdNsS8ce5/TmvLjzS4PdIXVpRvvAszS5nKh+romFwkARgL7klxNe/qH+DfpXQcGYELOFf8naY4QOF/dTPjiCwD058Xqu6S3z4j3eSuHbPwDA1lNfVb8n6i5vFv9/Mx5AgDY1fvs1f7p6qPif47KpW2jPm9DawYd5iTxf7K24b3qGep71BXVORpYOwAoG/sjaFv3flT9oXT7j/5Yd2ti8aD7LK5OF/8nbNvaN3xvUM9Rv6AeLL2TxF7qjuoOiFiFu6jvl97+IIdL73f7P5bel/m69D2nUK8WfhkFEfyH+D9pERExTbs88UYCEMFc0o0NLxARR1nb5A0gmvWk218IRETssrYx2ksEYEiOE/8nMSIixmvfhwAYmgXUO8T/iYyIiOHani4AyawjdV/2EhFxlLTf/C8iAA1xiPg/qRERcbD2M0fb9RSgMV6kXir+T25EROzv5wQgA7ZBkL215P0ER0TEF3qJsKMpZGR99Wnxf6IjIuI//aO6qABkxrbY9H6yIyJiz8eEy55Di9he+d5PekTEUde+9LedALSIXVji2+L/5EdEHGX3FQAH7LKaPxf/AwARcRQ9QgAcebF6ufgfCIiIo+TxAlAAdrGJ34j/AYGIOAqeps4uAIVgEXC1+B8YiIhd9r+ktzEbQFEspF4h/gcIImIXtbf9eeUPxWLfCbhY/A8URMQueagAVIC9PXWC+B8wiIi1+4y6twBUxn7S26TC+wBCRKzRR9S3CkClbK0+JP4HEiJiTf5eXVUAKmcl9QbxP6AQEWvwAul9qRqgE8wvvZ+veB9YiIil+pS6v/S2WgfoHO9QHxT/Aw0RsSR/p64pAB1nGeEaAoiIpn1R+jjpXVsFYCSwt7h2Ux8Q/wMQEdHDW9VNBGBEeZn6XfE/EBER2/Jx9TPqXAIAsp56lfgfmIiIOb1QXVYA4F+wPa7fq94t/gcpImKT/kLdSABgIPa22F7qveJ/0CIipni9uoMAQBTzqfuqd4r/QYyIGOP/SG8nVH7TD5DAHOqO6tXif1AjIvZzhnqWuo4AQOOsoh6h3i/+Bzsiomk/5ztEXUoAIDu2acZO6vnqk+J/AkDE0fIv6vHqxsLb/ABuLKDuIr39BP4u/icGROymt6lfUadK76NJACgIOyhfr35W/Zn6mPifNBCxTu9Tz1X3UVcUAKiKF0nvCzn/rp4kvS8SEgWIOF57S/+n6tHqu9QVBAA6h204tKz09uDeXXrvFpwqvWtwX6HeLL2TgV218CHxPzEhYrzPSu8YNv+k/lZ6FyGzV/T22f0npPc9ItuF9KUCWfh/uyBDeKUhhY0AAAAASUVORK5CYII=;" parent="g6LQHu9N5bepaxgSTT7o-4" vertex="1">
          <mxGeometry x="74.50999999999996" y="10" width="36" height="36" as="geometry" />
        </mxCell>
        <mxCell id="HqxaJNys2O56Uum3NzPm-21" value="&lt;font style=&quot;font-size: 10px;&quot;&gt;data-sources/{file-name(s)}.yaml&lt;/font&gt;" style="html=1;overflow=block;blockSpacing=1;whiteSpace=wrap;fontSize=13.3;fontColor=#3a414a;spacing=3.8;strokeOpacity=0;fillOpacity=0;rounded=1;absoluteArcSize=1;arcSize=9;fillColor=#ffffff;strokeWidth=0.8;lucidId=knI3L~YC_--j;" parent="g6LQHu9N5bepaxgSTT7o-4" vertex="1">
          <mxGeometry y="42" width="189.96" height="48" as="geometry" />
        </mxCell>
        <mxCell id="HqxaJNys2O56Uum3NzPm-22" value="" style="shape=image;verticalLabelPosition=bottom;labelBackgroundColor=default;verticalAlign=top;aspect=fixed;imageAspect=0;image=data:image/png,iVBORw0KGgoAAAANSUhEUgAAAgAAAAIACAYAAAD0eNT6AAAABGdBTUEAALGPC/xhBQAAAAFzUkdCAK7OHOkAAAAgY0hSTQAAeiYAAICEAAD6AAAAgOgAAHUwAADqYAAAOpgAABdwnLpRPAAAIABJREFUeJztnXncrVPduL/ImOGEUJmHJEPJmKE4VDJFJ/IihZLqRao3pUKoFyVRlCHhrWQsUb+Ut15DhugtITIlkYpwzI7h9/t+2+f8eno8ez9r7XWv+7vWva/r87n+O3vvtdbZ9/1ce1q3CEBZzKGuoG6m7qkerp6mXqheqf5efUB9UJ2u/l9EJx9X/6zeol6tfks9QN1KXUoAAKAvc6rrqfuqp6jXqk+I/4kdsQlvVY9Vt1DnFQCAEeZF6huk96r+UuGPPY6Oj6rfUF8vAAAjwhT13eo56sPifyJG9PZGdR91PgEA6BgvVndVf6A+Jf4nXMQS/av6H+r8AgBQOWuqJwiv9BFjvF/9hDqPAABUhH2u/071GvE/kSLW7J3q2wUAoHDsbcv91bvE/8SJ2CUvUVcTAIDCmEvdS71P/E+UiF31GfUIdW4BAHDGNujZW71X/E+OiKPi9dL7bg0AgAu2K99vxf9kiDiKzlAPld7GWQAArbCker74nwARsbfd8LICAJCR2dTd1L+L/0kPEf+pXf9iJwEAyMBy6mXif6JDxP5+Vdg3AAAaZAf1IfE/uSHi5P5a+EgAABJZUD1L/E9oiBinbSdsF9gCAIhmZfUm8T+RIeJw2p4BBwgAQAT2lr9dptT7BIaI6Z4ivY26AAAGsp/6vPiftBCxOa9QFxUAgAmwi/ecKP4nKkTM423qKwUAYAx2AR+70Ij3CQoR8/o3dQMBAFCmqFeK/4kJEdvxSXVHAYCR5iXqNeJ/QkLEdrXv+XxYAGAkWVh6VxTzPhEhop+fEQAYKWyDH175I6Jp2wfPLgDQeeYT9vRHxH/1v4TLCgN0Gqv888T/ZIOI5XmROq8AQCf5kvifZBCxXK+W3veDAKBDfFD8Ty6IWL52NcHFBQA6gW388bT4n1gQsQ7vVFcUAKial6v3if8JBRHr8l51VQGAKrH9/e0iIN4nEkSs0/vVNQUAquMw8T+BIGLdPqSuKwBQDRuqz4r/yQMR6/dhdX0BgOKxnf7sSzzeJw1E7I7ThSsJAhTPCeJ/skDE7vmYuqkAQJHY23TPif+JAhG76ePqZgIARTG3erP4nyAQsdtaBGwuAFAMB4r/iQERR8On1G0EANx5mfqI+J8U2vZJ9TfqWepR0ru++UfUvdQd1R0Qh3An6X2X5i/i/xwvWYuArQUAXDlV/E8GbfhH9Zvqu9TlheuYQ17mkN4fuF+J/3O/VG2b8bcNu8AAkMYa0u0v/t2lHqq+qqH1AohlNnVX6f0Uzvt4KNEZ6rShVxcAhuZ74n8CaFoLmnPUTYRX+VAOdoGc68X/+ChRi4Dth19aAIhlLfV58T/4m/zDf7a6SpOLBNAgi6o3iP+xUqIWAdsNv7QAEMNF4n/QN+VP1JWbXR6ALCyh3iP+x0yJ2ncC+HUAQGZWk268+v+zulvDawOQmzdJN44/IgCgQr4h/gd6qvZ2/0JNLwxAS5wo/sdQqdpPBLcYfmkBoB+LSe838N4HecrJYb/GVwWgXWz/jcfF/3gqVXsnYKuhVxcAJuQg8T+4h9Xe8l+r+SUBcOFL4n9MlewTwrbBAI1hP4u7S/wP7GG0yxSv2PiKAPjxSuG7ACERwAWEABrAPlfzPqCH0XZTWzzDegB4c5n4H1+lax+VbDLk+gLATM4V/4M51hvVhXMsBkAB2PdZvI+xGnxMfcOQawww8iwo9X3570/q0jkWA6AQ7LoU3sdZLfJOAMCQ2H7k3gdwjA8Im/vAaHCH+B9vtWhXLt1guGUGGF0uFP+DN1T7YhRXCYNR4Tvif8zVpH0c8MahVhpgBFlAer+f9z5wQ/1CnmUAKJIPi/8xV5u8EwAQiF1kw/uADfVqdc48ywBQJFPF/7irUYuADYdYb4CRopZtR59R18i0BgClsqT4H3u1ah8HbBK94gAjxF3if6CGeFSm+QOUzGzqo+J//NUq7wQA9MF2z/M+QEO8W50/0xoAlM4t4n8M1iwRADAB7xb/gzPE3XMtAEAFXC7+x2DtEgEA4zhJ/A/MybRX/3PlWgCACjhf/I/DLsh3AgDGYFvpeh+Uk/mhbLMHqINavqhbg7wTAKDMpz4n/gfkIO9X5821AACVcLj4H4tdkgiAkWcd8T8QJ/O4bLMHqAcuCkQEADTKe8X/IJzMtbLNHqAe9hD/Y7GL8p0AGFm+LP4H4CBvyjd1gKrYRfyPx67KOwEwklwk/gffIA/NN3WAqpgm/sdjlyUCYOSwV9jeB94gN8k2c4C62Fr8j8euSwTASGGff3kfdP18Up0n39QBquLN4n9MjoJ8JwBGgsXE/2Ab5CX5pg5QHW8Q/2NyVOSdAOg8q4v/gTZILvwD8E9eL/7H5ChJBECn2VT8D7JB7plv6gDVsb74H5OjJh8HQGfZQfwPsEFS3wD/ZD3xPyZHUSIAOsle4n9wDXKxfFMHqI51xf+YHFX5OAA6x/7if2D183l19nxTB6iOGrbt7rK8EwCd4gDxP6j6+WjGeQPUyNrif1yOukQAdIbPiP8B1c/7Ms4boEbsmhjexyXycQB0hMPE/2Dq560Z5w1QIwRAORIBUD0lX1/8dxnnDVAjBEBZ8nEAVA0BAFAPBEB5EgFQLQQAQD0QAGVKBECVEAAA9UAAlCvfCYDqIAAA6oEAKFt7J2DTvv97AIVBAADUAwFQvo+rU/v9BwKUBAEAUA8EQB1aBGzW5/8QoBgIAIB6IADq0SJg84n/GwHKgAAAqAcCoC6fUN804f8kQAEQAAD1QADU51Pq1hP9ZwJ4QwAA1AMBUKdPq9tM8P8J4AoBAFAPBEC9WgRs+8L/UgA/CACAeiAA6tYiYLsX/K8COEEAANQDAVC/FgHbj/+PBfCAAACoBwKgG85Q3y4AzhAAAPVAAHRHi4BpAuAIAQBQDwRAt3xWfacAOEEAANQDAdA97Z0Afh0ALhAAAPVAAHRT9gkAFwgAgHogALqrRcBWAtAiBABAPRAA3dauHcBVBKE1CACAeiAAuq9dRXBTAWgBAgCgHgiA0dAi4I0CkBkCAKAeCIDR8TF1YwHICAEAUA8EwGj5sLquAGSCAACoBwJg9LQIWFsAMkAAANQDATCaPqC+RgAahgAAqAcCYHT9m7qyADQIAQBQDwTAaHu3urQANAQBAFAPBADeqC4sAA1AAADUAwGA5jXq/AKQCAEAUA8EAM7yEnVuAUiAAACoBwIAx3q+OocADAkBAFAPBACO92sCMCQEAEA9EAA4kYcJwBAQAAD1QABgPz8qAJEQAAD1QABgP59X3yUAERAAAPVAAOAgZ6ibC0AgBABAPRAAOJnT1dUFIAACAKAeCAAM8Q/q4gIwCQQAQD0QABjqtep8AjAAAgCgHggAjPEsdTYB6AMBAFAPBADGeqAA9IEAAKgHAgBjfU7dWgAmgAAAqAcCAIfxEfXVAjAOAgCgHggAHNZb1IUEYAwEAEA9EACY4tkCMAYCAKAeCABM9X0CMBMCAKAeCABM9Un1NQIgBABATRAA2IQ3CZsEgRAAADVBAGBTnigw8hAAAPVAAGBT2uWDtxAYaQgAgHogALBJ71GnCIwsBABAPRAA2LQnCYwsBABAPRAA2LT2UcDmAiMJAQBQDwQA5vBmdU6BkYMAAKgHAgBzub/AyEEAANQDAYC5nK4uITBSEAAA9UAAYE75QuCIQQAA1MOq4n9cYnd9Vl1JYGQgAADqYWnxPy6x254iMDIQAAD1YN/UniH+xyZ2V3t+LScwEhAAAHVhP9nyPjax235dYCQgAADq4lTxPzax2z4hbBE8EhAAAHWxi/gfm9h99xboPAQAQF0sqD4u/scndttrBToPAQBQH6eL//GJ3fe1Ap2GAACoj1XU58T/GMVue4hApyEAAOrkDPE/RrHbXiPQaQgAgDqxfdsfEv/jFLurvcv0UoHOQgAA1Ms08T9OsdvuLNBZCACAujlS/I9V7K5HC3QWAgCgbmYTfhWA+bxYoLMQAAD1YxFgr9S8j1nsnvcKdBYCAKA7vF99UvyPXeyWbAvcUQgAgG6xqnqp+B+/2B1XEugkBABA97CPBLZXfyX+xzHW79oCnYQAAOg266rHqreI/zGNdbqZQCchAABGh5epm6t7qQeon1ePwH/4VfVE9Sz1PPWn6mXqdert6qPif070cjuBTkIAAACEMa+6rDpVfa/6n+qP1L+K//kyp29vYO2gQAgAAIB0llLfo56pPiD+508CACaFAAAAaJY5pPdRy9nqM+J/LiUAYEIIAACAfLxSeiHwvPifUwkA+BcIAACA/Gyk/kH8z6sEAPx/CAAAgHZ4iXqB+J9bCQD4BwQAAEB7zC69Lwp6n18JACAAAABaZk7p/XzQ+xxLAIw4BAAAQPssIvXsH0AAdBQCAADAh13F/zxLAIwwBAAAgB+/Ff9zLQEwohAAAAB+fEj8z7UEwIhCAAAA+LGg+oT4n28JgBGEAAAA8OVS8T/fEgAjCAEAAODLkeJ/viUARhACAADAl3eI//mWABhBCAAAAF/WF//zLQEwghAAAAC+rCz+51sCYAQhAAAAfFlM/M+3BMAIQgAAAPjyYvE/3xIAIwgBAADgCwEALhAAAAC+EADgAgEAAOALAQAuEAAAAL4QAOACAQAA4AsBAC4QAAAAvhAA4AIBAADgCwEALhAAAAC+EADgAgEAAOALAQAuEAAAAL4QAOACAQAA4AsBAC4QAAAAvhAA4AIBAADgCwEALhAAAAC+EADgAgEAAOALAQAuEAAAAL4QAOACAQAA4AsBAC4QAAAAvhAA4AIBAADgCwEALhAAAAC+EADgAgEAAOALAQAuEAAAAL4QAOACAQAA4AsBAC4QAAAAvhAA4AIBAADgCwEALhAAAAC+EADgAgEAAOALAQAuEAAAAL4QAOACAQAA4AsBAC4QAAAAvhAA4AIBAADgCwEALhAAAAC+EADgAgEAAOALAQAuEAAAAL4QAOACAQAA4AsBAC4QAAAAvhAA4AIBAADgCwEALhAAAAC+EACOzK4up26qTlN3GCHPE/8nVz/vKWB9EEt0c3VldU6BLkAAtMxS6sfVn6qPi/8CIyLGOkO9Qv2suopArRAALbGhepH6nPgvKiJik/5C3UadTaAmCIDMvEI9Q/wXEhExt9eq6wjUAgGQERv8Q+K/iIiIbfmMeoj0vuMEZUMAZMDeBjtS/BcPEdHLs9S5BUqGAGgY++N/kvgvHCKit/Zl53kESoUAaJgjxH/REBFL0X7yy8cBZUIANIj9TtZ7wRARS/PTAiVCADTEkup08V8wRMTSfFZdX6A0CICGOFf8FwsRsVT/V51DoCQIgAZYV/wXChGxdHcVKAkCoAG+J/4LhYhYunahLXYLLAcCIJHFpbfxhfdCISLWoG2LDmVAACSyn/gvEiJiLR4vUAoEQCJ2gR/vRUJErMVbBUqBAEiEvf4REeNcQqAECIAEXib+C4SIWJubCJQAAZDABuK/QIiItbmHQAkQAAlsIf4LhIhYmx8WKAECIIHtxX+BEBFr81MCJUAAJGCD814gRMTa5OJAZUAAJEAAICLGSwCUAQGQAAGAiBgvAVAGBEACBAAiYrwEQBkQAAkQAIiI8RIAZUAAJEAAICLGSwCUAQGQAAGAiBgvAVAGBEACBAAiYrwEQBkQAAkQAIiI8RIAZUAAJEAAICLGSwCUAQGQAAGAiBgvAVAGBEACBAAiYrwEQBkQAAkQAIiI8RIAZUAAJEAAICLGSwCUAQGQAAGAiBgvAVAGBEACBAAiYrwEQBkQAAk0HQDPqeeoZwd6rvp8w2No2j9GzMe8uqVxfU1dK8BtC1jDWK+OXPPxXlrAHJrwlsR1MO/IPMbrIsZyawFr2pQEQBkQAAnkeAcgdsI/zDCGJt0xcj4XtDSu1SLG9KuWxtSUu0TMbSKmqE8VMI9Ut0tcB+PEzGN8f8RYjsk8ljYlAMqAAEggRwDcoM4eMYapGcbQlPbq6UURc1lT2nlH49qIMRn7tTCmJk0NAOP7BcwjxenqPA2sAwGQRwKgDAiABHJ9ByD2lUupr1A/EDmPtl797xs5rkXUp1saWxM2EQDvLGAeKZ7WwBoYBEAeCYAyIAASyBUAv1ZnixjHLpnGkeJf1Xkj5tDWq/9n1MUjxjWLtuKkCZsIgPnURwuYy7C+tYE1MAiAPBIAZUAAJJDzVwDbRoxjTul92c77PyvlAG/rD+xFkeOaxbSWxteETQSA8a0C5jKMD6pzNbQGBEAeCYAyIAASyBkA9rZ+zLsAH8s4llgfk97b5qG09erffGfEuMZif1Dub2mMqTYVAFsVMJdhPLGh+YsQALkkAMqAAEgg9z4AW0WMZQH14czjCfWYiHEbbb36ty+GzRc5trEc39I4U20qAOydpVqiZ6xTG5q/QQDkkQAoAwIggdwBYL8RjnkX4IuZxxPiDHWZiDG3+er/lIhxTcR6LY0z1aYCwPh6AfOJ8T51jgbnTwDkkQAoAwIggTZ2Aoz5MtOS0vsD7PkfdkbEeI02v1z3xsixTcTNLY53WJsMgDcWMJ8Yj2tw7gYBkEcCoAwIgATaCICrI8f07RbGNMjXRoy1zVf/9iXJmP0V+nFgS+NNsckAsHeg7ipgTqFu2ODcDQIgjwRAGRAACbR1LYC3RIzpdS2NaSL/T8Q4jTY3m/lc5Nj6sZT0tmz2PjAGGRIAK0j4x0slfLQU4t0SFnkrBs7bIADySACUAQGQQFsBcGXkuH7W0rjGu2nEGC1U2ryOwasCxrSshO1c+NMWxz2MIQFgJ+ANAv6dsVYBcwrx6IC52PcDfhw4b4MAyCMBUAYEQAJtXg3wTRHj8vj51i8jxme0+dl/6Njep64e8O92a3HswxgSAB9Wjw34d7P4XQHzmsy1A+axmcQ9VwmAPBIAZUAAJNBmAPwiYlz21u6NLY7NnBYxvjY/+zf3CRyXfYHx3QH/zg6aR1ocf6whAbCnxH1j/pAC5jVIu+5EyEcaJ6mXB87ZIADySACUAQGQQJsBYG4WMbY9WxyXXaY05qdXbX72b7+KeGnguO5STwj8t6e1OIdYQwJgx5n/NvQ38ysXMK9Bfj5gDravwQPqJYFzNgiAPBIAZUAAJNB2AFwRMba51T+3NK69IsbV9qv/HwSOa5WZ//6mwH9f8lUYQwJgy5n/NmbXvFIvOmWuETD+WR+N/TBizgRAHgmAMiAAEmg7AMxNIsb36RbGE3vRn7YvqrND4Lg+MvPfW5yEXCzI3m6+s+W5hBoSABvP/Lcx++aXtN30WG8OHP8ZM//9+YH/3iAA8kgAlAEBkIBHAPw8Yny2H//jmcdzYMR42v7mv22NHHpN+LHf7N8p8DaHtziXGEMC4LVj/v2WgfMt9SeQBweM3Z4H02f+++8GztcgAPJIAJQBAZCARwCYb4gYY8796+2LcC+JGEvbr/5PDhyXhdLTY253ZuDtXtnyfEIN3Qdg1r8/PXC+xqUFzG+8IT/x3H7I+RIAeSQAyoAASMArAGK+xLSc+mymcXwxYhxtf/ZvhobS3uNuZ2ET+s7BVS3PKcSQAFh83HxDP8YZv1be/m/guM8ec5uTAm9jEAB5JADKgABIwCsAzI0jxnlehse3b9cvHTGGtl/93yXhW/9ePsHtQ98W/0DL8woxJADmG3eb0ANtYfnXd0u8PSBgzHaSe2zMbb4SOFeDAMgjAVAGBEACngHwk4hxbpDh8b8Z8fger/4PCxzb0n3GFvrxgX0E8lTLc5vMkACwLzGOfWforMD5Gj8sYI6zXCFgvLuMu03MO1cEQB4JgDIgABLwDABzo4ixXtng49ofzNUiHrvtV/9myOfCxif73P5+CdsW2DjHYX6DDL0Y0KwvxZn2ZdH5A2+3awFzNEMvlPWDcbeLuS4EAZBHAqAMCIAEvAMgZk/zaQ0+7oURj+vx6v+aiPHdMOB+Qr9DsE3L85vM0AC4Z9ztdg683fi31L3cP2CsU+SF79AcFDhPgwDIIwFQBgRAAt4BYK4fOFbbqe/2hh4z5lcIHq/+/z1wbGtMcj/HBN6P7TD3V4d59jM0AMbv739B4O2Ms5znaD9HXDJgnLtPcNtPRsyTAMgjAVAGBEACJQTAjyLG+6EGHu+qiMdr+3f/ZszWv/85yX2FXl7WKOnkHBoA1427nb1SnhJ42+2c53hZ4DgvnuC2Hw+8rUEA5JEAKAMCIIESAsBcN3C89s3v+xMfa7vw5XF59R/zKjbkHZFNAu9rTYe59jM0ACb6Xsgegbe13QP/7jjHDwaM0ULwmQlu+5HAORoEQB4JgDIgABIoJQBiPpNP2b3uFgl/Rezx2b/5jsDxrRt4f6G/BjCud5jvRIYGwP9McNuLI+b7Daf52a8XQrZr7veO134RcyQA8kgAlAEBkEApAWCuEzjmxdQnh3yMPSPWxuPVv239G7qhzdGB9zk94j5L2Ss/NAAmens89I+rsbnT/EJ/AntZn9uHfkfEIADySACUAQGQQEkBEPPW9zCv3P4i4bvjeb36D72ynf0G/q6I+50WeL/2h3Oit5zbNjQALuxz+5C31w17N+heh/mFhOjLpf91Cz4QOD+DAMgjAVAGBEACJQWAuXbguO038rEXdQnZcW0WHq/+zdB9ETaMvN+Yq8f9yGnuYw0NgH47RF4aMd9jW56bfclz4YBxfXTAfcRcvpoAyCMBUAYEQAKlBcD3IsYes5ubvQ0e+u1wr1f/d0nvlX0Ix0Xet219u0jgfe/kMPfxhgbAmX1uH/oTO2P9lucW+n2XXw64j5iPsgiAPBIAZUAAJFBaANgf3rUCxz414n6PjFgTr1f/hwaOb9i3rUNfNdrHJA85rcEsQwPgtAH3EfNN+dtanNuuAeNZXgZH6Lsj5kYA5JEAKAMCIIHSAsA8L2L8vwq4P3vLdanA+/N69W+uHDjGTYa8/5i3xU92WoNZhgbASQPuI2Y3xc+1NC/78uqCAeP51CT3ExIRsyAA8kgAlAEBkECJAWB/gNcIHP/4i6RM5KkR6+H16j90T3jjhCEfw9Z12cDH2MhpHWYZGgBfnWS+ywfez2otzSs0bif7OWbo+hgEQB4JgDIgABIoMQDMcwLHb1vY3j3gfuyPwCqB9+Wx698sPxQ4Rru4T8qWvQcGPo59F6GpbZeHMfQP3JcnuZ+YLXN/28K8dgwYxyoB90MA+EsAlAEBkECpAWB/iFcPnMOg365/P2ItvF7920cUiwaO8U2Jj/W7iPU42Gk9zNA/cJP9Qbk+Yr79rqrYlHbxoRcHjOPQgPsiAPwlAMqAAEig1AAwvxs4hwWkt4HORPexQeB9eH72HxMppzTweGsGPtayjmvSVACYqwbe1zKZ5/vtwHH8PuC+CAB/CYAyIAASKDkA7KdcqwXO44sT3P7yiHXwevVvhm7SYx93PNDA430xYl367USX2yYD4LMR853o2gJNuW3A468VeF8EgL8EQBkQAAmUHADmdwLnYb/5njHuttsE3tbz1f+D6tyB49yyocf8s/QurRzCnk7r0mQA3B54X8Y+meZjP6sM+X8+KvD+CAB/CYAyIAASKD0AbF/3VwXO5dtjbnezhF/0x/PV/9cDx2ic3uDjbh74mPaTtccd1qXJADBfF3h/dp2JHFshh/wSxb54+YfA+yMA/CUAyoAASKD0ADC/FTiX18g/X8nvHngbz1f/5oaB47RXj/2+5zCM3wx8XOM7DuvSdADEbAT1kwzzeUvA48Zs70wA+EsAlAEBkEANAWDvAoRukvMz9R7pXes9BM9X/3+Q8K1/39bwYz+izhf42Fs4rE3TAWA/FQ1d690bnsv90vv+xmTEbO9MAPhLAJQBAZBADQFgnh44n62k97PAELxf/R8SOE5j7McbTfnOwMe2j1L+1OK6mE0HgBn6ixD72OOJBufytYDHjN3emQDwlwAoAwIggVoCwD6XXSlgPvYqL+S31obnq//nA+djzCu9V+xNjyH0ojRG6JfTmjJHABwbMd/zG5zLpgGPt2nkfRIA/hIAZUAAJFBLAJjfbHDe3q/+r4wY67RMY7CoWixwDK9ucW3MHAFwn4T/+mGHhuYR+piDrmmQsj4GAZBHAqAMCIAEagoA+y5A6KvmyfB89W9+IGKsZ2ccR+gWxEbIhZeaMkcAmFMD79euiNjEly6/HPBYw+zvQAD4SwCUAQGQQE0BYH6jgTl7v/p/WsK3/rUv6j2WcSwx70Ts28LazDJXAJwYMd8zGpjH6wMeZ6sh7pcA8JcAKAMCIIHaAsA2+wm9wls/vF/9nx8x1p1aGE/ouyqLSC9e2lijXAFgGy+F/kLkrYlzCP3lwTChQQD4SwCUAQGQQG0BYJ6UMF/vV//m9hHj/V4L4zkoYjxtxVOuADC3DLzv1CsvHhXwGMN+1EAA+EsAlAEBkECNAWDvAiw75Hy9X/3/XcK3/jUOUY/IbMz3Edp6vuQMgNCflBonJMxh7YD7337I+yYA/CUAyoAASKDGADBjttCdRQmv/kN+E14y9va5bWyTe51yBoD9pHLewPvfeMjxh15/YNgveBIA/hIAZUAAJFBrAAzzLoD3q38zdDOakjle8q9TzgCIOShj9ucf62EB920nrmG/4EkA+EsAlAEBkECtAWCeEDHPpcX/1b+9KgzdjrZk1pX8a5U7AM6KmO8wmyCtHnC//zbk2GPWxyAA8kgAlAEBkEDNAXBtxDzb3shmIg+OGG/p2NUWc65V7gCwKxzOH/gYa0be9+8C7zflHSkCwF8CoAwIgAQIgPZ8ZcR4S+dAybtWuQPA3DlivjdF3G/IH4Yp6lMJYycA/CUAyoAASIAAaMcrIsZaA6+Q3s6MudarjQC4IGK+B0Xcb0jo7ZEw7pj1MQiAPBIAZUAAJEAAtGPMSbIWLpF869VGANimRgsHPs4KEvYdkl8F3t/FCeOOWR+DAMgjAVAGBEACBEB+7Q/NIhFjrYXdJN+atREA5h4R87024P4+HnA/L5XehZjaWB8tFgh3AAARJ0lEQVSDAMgjAVAGBEACBEB+z4sYZ03YgZfjMsVmWwFwccR8PzLJfdk7BMsG3M8HE8ccsz4GAZBHAqAMCIAECID8bhcxzk+odzj7jojxnha5FqG2FQAxl0S27z08N+C+rgq8n0sTxxyzPgYBkEcCoAwIgAQIgLzGbP1rewTc6TTOsV4UOF5jaqYxtBUA5gcj5vvzAfezX8DtXy6DI6Lp9TEIgDwSAGVAACRAAOT1+IgxbuA0xvHGvCrOFS1tBsClgY9l7NXnPuyP+isCbj/ZxwhNr49BAOSRACgDAiABAiCv60eM8StOY5zImAsEHZ7h8dsMAPvsfunAx3uJTHxJ5J8H3v6aBsYbsz4GAZBHAqAMCIAECIB83ibhW//apWf/4jDGfl4WOG5jJWl+m+U2A8D8SMR8L5zg9nsH3G55aW6dCAB/CYAyIAASIADyeVDE+N7iML5Bhn6jfRZXNfz4bQfANRFz3XncbUM/Mmly90QCwF8CoAwIgAQIgDzaH9DlI8Z3WsvjC/GAiPF/oOHHbjsAzBUDH9NOOI+Oud2PA293fYNjJQD8JQDKgABIgADI4+URY5tHfbjl8YX4m4g52GfjKXvbj9cjAA6MmO+ZY263e8C/f1WD44xZH4MAyCMBUAYEQAIEQB73ihjbDi2PLcZVI+ZxToOP6xEA10fMdduZtwndTvizDY4zZn0MAiCPBEAZEAAJEADNG7v17/ktji3WwyLmsU2Dj+sRAGZo8MypPiDhFxT6fcPjJAD8JQDKgABIgABo3nMixrWg+mSLY4vVdgaM+SXDfQ09rlcAfDbwcY2TJeySwq9reIwx62MQAHkkAMqAAEiAAGjet0WMa/cWxzWsMXsZNHWC9wqA30fMdVHpfX9jMo5seIwx62MQAHkkAMqAAEiAAGhW2/p3rohx/bSlcaV4bMR81mzoMb0CwHxdxHwnw949+UOGMRIA/hIAZUAAJEAANOtXI8a0hPpsS+NK8a/Se3s/lCZ+7uYZAEdGzHUycm3vTAD4SwCUAQGQAAHQrOtFjOnDLY2pCd8UMa+PNfB4ngFwt4R/72Eyjs0wvpj1MQiAPBIAZUAAJEAANOetEveHo6l94dvw1Ih5LS693fFSHs8zAMwNIubbj9nVezONjwDwlwAoAwIgAQLA54SwgjS/f35Op6vzRszvR4mP5x0AMd976EeuSyXHrI9BAOSRACgDAiABAqAZ7Y/5chHj+XTm8eRwWsT8dkp8LO8A+LM6R8R8JyLnH95aA2Az6W0x7e0nGpg3AVAGBEACBEAzxlw9z7gx83hyeG7E/OzncQ8lPJZ3AJhTI+Y7nlkbBeUaW60BUAr2UV3qvAmAMiAAEiAAmvF9EWNp6qdybWsbFi0UMc+TEx6rhAA4MWKu49ky47hi1keEAJgIAqA7EAAJEADp2h/GKRFjOSrjWHL7noh5bpTwOCUEwIMSt6fDWE7POK6Y9TEIgBdCAHQHAiABAiDdsyPGYSeeuzKOJbcXR8719iEfp4QAMLeMmO8s2ri6IwGQBgHQHQiABAiAdLeJGMcbMo6jDW3joiUi5nvwkI9TSgCcHjHXWbRxTBEAaRAA3YEASIAASNO+6BXzNvHXMq5HW+4bMd9lZbifO5YSAI9I3M8fjbMyjylmfQwC4IUQAN2BAEiAAEjzuIgx2DfD78+4Hm15VcScjUuHeIxSAsCMOYDtZPRYC2MiANIgALoDAZAAAZDmOhFj2DrzerTpihHz3nOI+y8pAM6KmOvOLYwnZn0MAuCFEADdgQBIgAAY3lsjHt/4doYxePmpiHkvqD4eef8lBYCNff7A8VzQwnhi1scgAF4IAdAdCIAEag6AP0n4zl9HZ3j8KyIe33y0gDVryjsi535b5P2fGXi/V7Q031MCxmK7yz3V0nhC18fMfc2J8yPGUorsBNgdCIAEag4AREQvCYAyIAASIAAQEeMlAMqAAEiAAEBEjJcAKAMCIAECABExXgKgDAiABAgARMR4CYAyIAASIAAQEeMlAMqAAEiAAEBEjJcAKAMCIAECABExXgKgDAiABAgARMR4CYAyIAASIAAQEeMlAMqAAEiAAEBEjJcAKAMCIAECABExXgKgDAiABLYT/wVCRKzNAwVKgABI4M3iv0CIiLW5j0AJEAAJrCP+C4SIWJvvEigBAiCBKeK/QIiItbm+QAkQAIncI/6LhIhYi8+pCwmUAAGQyHfEf5EQEWvxOoFSIAAS2U38FwkRsRYPFygFAiARW8BHxX+hEBFr8FUCpUAANMAJ4r9QiIil+zOBkiAAGmBZdYb4LxYiYsluKlASBEBDHCX+i4WIWKrfEygNAqAh5lfvEP8FQ0QszYfVZQRKgwBokLXVp8R/0RARS3KaQIkQAA2zk/Q2uvBeOETEEvyMQKkQABnYW4gARMSjBUqGAMjEjurj4r+AiIht+6z6MYHSIQAyspp6o/gvIiJiW9r1Ufi5Xx0QAJmZS/2k+oj4LyYiYi6fVr+kLihQCwRASyysHqzeLf6LiojYlA+oX1aXEqgNAqBlZlffqH5OvUx6B4/3IiMihjpd/aV6jLql9N7lhDohAApgAXVpdfkR8njxf3L18/YC1gexNJdTpwh0CQIAXLBLgno/ufp5c8Z5AwCUAgEALhAAAAC+EADgAgEAAOALAQAuEAAAAL4QAOACAQAA4AsBAC4QAAAAvhAA4AIBAADgCwEALhAAAAC+EADgAgEAAOALAQAuEAAAAL4QAOACAQAA4AsBAC4QAAAAvhAA4AIBAADgCwEALhAAAAC+EADgAgEAAOALAQAuEAAAAL4QAOACAQAA4AsBAC4QAAAAvhAA4AIBAADgCwEALhAAAAC+EADgAgEAAOALAQAuEAAAAL4QAOACAQAA4AsBAC4QAAAAvhAA4AIBAADgCwEALhAAAAC+EADgAgEAAOALAQAuEAAAAL4QAOACAQAA4AsBAC4QAAAAvhAA4AIBAADgCwEALhAAAAC+EADgAgEAAOALAQAuEAAAAL4QAOACAQAA4AsBAC4QAAAAvhAA4AIBAADgCwEALhAAAAC+EADgAgEAAOALAQAuEAAAAL4QAOACAQAA4AsBAC4QAAAAvhAA4AIBAADgCwEALhAAAAC+EADgAgEAAOALAQAuEAAAAL4QAOACAQAA4AsBAC4QAAAAvhAA4AIBAADgCwEALhAAAAC+EADgAgEAAOALAQAuEAAAAL4QAOACAQAA4AsBAC4QAAAAvhAA4AIBAADgCwEALhAAAAC+EADgAgEAAOALAQAuEAAAAL4QAODCoeL/5OrnbRnnDQBQCguJ//l2kNvlmzp48hnxf3L1876M8wYAKIUlxf98O8gt8k0dPDlA/J9c/Xws47wBAErh1eJ/vh3k1HxTB0/2F/8nVz+fV+fIN3UAgCJYT/zPt4PcMN/UwZO9xP/JNcjF800dAKAIthb/c+0g18w3dfBkmvg/uQa5cb6pAwAUwcfE/1w7yKXyTR082UT8n1yDfG+2mQMAlMHJ4n+uHeR8+aYOnqwm/k+uQX4h39QBAIrgMvE/1/bziYzzBmdeKv5PsEH+d76pAwC48yJ1uvifa/t5V7aZQxHYz+28n2T9fFKdN9/UAQBcWV/8z7OD/Hm+qUMJ3CT+T7JB8htUAOgqnxL/c+wgT803dSiBi8T/STbIw/NNHQDAlUvE/xw7yIPyTR1K4Bjxf5INkosCAUAXse9gzRD/c+wg/y3b7KEI9hD/J9lkrpNt9gAAPuwn/ufWyVw12+yhCOyPq/eTbDK/km32AAA+XCf+59ZBPqXOmW32UAS2ycOz4v9kG+QDwq8BAKA7rCH+59XJ/E222UNR3CD+T7bJ3Cfb7AEA2uU74n9OncxvZJs9FMWJ4v9km8w/qXPlWgAAgJZYUcp/19XcPdcCQFnsJv5PthC5NgAA1M5p4n8uDXHlTPOHwlhB/J9sId6jLpBpDQAAcmOX1q3h1f/f1NkyrQEUyB3i/6QL8ehcCwAAkJHZ1SvF/xwa4pmZ1gAK5Wvi/6QL8Rn1NZnWAAAgF3uJ//kz1N0yrQEUyrbi/6QL9ZfCFwIBoB6WUR8U/3NniM+rS+RZBiiV+aW38YP3ky/UY/IsAwBAo9hmOleJ/zkz1OvyLAOUzvfF/8kXU6nb5VkGAIDG+KL4ny9j/ESeZYDS2Vn8n3wx2ltqr86yEgAA6ewkvRcr3ufKGFfIshJQPPYTuyfE/wkYo/00cJkciwEAkMBUqetjVfOXWVYCquFs8X8SxnqTukiOxQAAGIK11EfE/9wY6/45FgPq4c3i/yQcxl8L31wFAH/Wl94FzLzPibHauxWLZlgPqAjb/el28X8yDuOd6krNLwkAQBCbS52v/M3vZlgPqJBPi/+TcVjvU9dpfkkAAAaypzpD/M+Bw7p580sCNbKY1PdlwLHaboEHCHtZA0B+5lGPFf/zXoo3S2+rYoB/cLL4PylTPU+d0vTCAADMZFX1RvE/16W6R9MLA3Vjl4J8TvyfmKnaRwK2rzXvBgBAU8yrHiL1/cxvIv8ivXcxAP6FC8T/ydmU/62u0uzyAMAIYtdNsS8ce5/TmvLjzS4PdIXVpRvvAszS5nKh+romFwkARgL7klxNe/qH+DfpXQcGYELOFf8naY4QOF/dTPjiCwD058Xqu6S3z4j3eSuHbPwDA1lNfVb8n6i5vFv9/Mx5AgDY1fvs1f7p6qPif47KpW2jPm9DawYd5iTxf7K24b3qGep71BXVORpYOwAoG/sjaFv3flT9oXT7j/5Yd2ti8aD7LK5OF/8nbNvaN3xvUM9Rv6AeLL2TxF7qjuoOiFiFu6jvl97+IIdL73f7P5bel/m69D2nUK8WfhkFEfyH+D9pERExTbs88UYCEMFc0o0NLxARR1nb5A0gmvWk218IRETssrYx2ksEYEiOE/8nMSIixmvfhwAYmgXUO8T/iYyIiOHani4AyawjdV/2EhFxlLTf/C8iAA1xiPg/qRERcbD2M0fb9RSgMV6kXir+T25EROzv5wQgA7ZBkL215P0ER0TEF3qJsKMpZGR99Wnxf6IjIuI//aO6qABkxrbY9H6yIyJiz8eEy55Di9he+d5PekTEUde+9LedALSIXVji2+L/5EdEHGX3FQAH7LKaPxf/AwARcRQ9QgAcebF6ufgfCIiIo+TxAlAAdrGJ34j/AYGIOAqeps4uAIVgEXC1+B8YiIhd9r+ktzEbQFEspF4h/gcIImIXtbf9eeUPxWLfCbhY/A8URMQueagAVIC9PXWC+B8wiIi1+4y6twBUxn7S26TC+wBCRKzRR9S3CkClbK0+JP4HEiJiTf5eXVUAKmcl9QbxP6AQEWvwAul9qRqgE8wvvZ+veB9YiIil+pS6v/S2WgfoHO9QHxT/Aw0RsSR/p64pAB1nGeEaAoiIpn1R+jjpXVsFYCSwt7h2Ux8Q/wMQEdHDW9VNBGBEeZn6XfE/EBER2/Jx9TPqXAIAsp56lfgfmIiIOb1QXVYA4F+wPa7fq94t/gcpImKT/kLdSABgIPa22F7qveJ/0CIipni9uoMAQBTzqfuqd4r/QYyIGOP/SG8nVH7TD5DAHOqO6tXif1AjIvZzhnqWuo4AQOOsoh6h3i/+Bzsiomk/5ztEXUoAIDu2acZO6vnqk+J/AkDE0fIv6vHqxsLb/ABuLKDuIr39BP4u/icGROymt6lfUadK76NJACgIOyhfr35W/Zn6mPifNBCxTu9Tz1X3UVcUAKiKF0nvCzn/rp4kvS8SEgWIOF57S/+n6tHqu9QVBAA6h204tKz09uDeXXrvFpwqvWtwX6HeLL2TgV218CHxPzEhYrzPSu8YNv+k/lZ6FyGzV/T22f0npPc9ItuF9KUCWfh/uyBDeKUhhY0AAAAASUVORK5CYII=;" parent="g6LQHu9N5bepaxgSTT7o-4" vertex="1">
          <mxGeometry x="119.46999999999994" y="10" width="36" height="36" as="geometry" />
        </mxCell>
        <mxCell id="HqxaJNys2O56Uum3NzPm-23" value="Configuration maintained as YAML in Notifier bucket" style="text;html=1;strokeColor=none;fillColor=none;align=center;verticalAlign=middle;whiteSpace=wrap;rounded=0;fontSize=10;" parent="g6LQHu9N5bepaxgSTT7o-4" vertex="1">
          <mxGeometry x="24.98" y="90" width="135.02" height="30" as="geometry" />
        </mxCell>
        <mxCell id="4SqLzdmS7a_BjOeYIGlZ-20" value="" style="edgeStyle=orthogonalEdgeStyle;fontSize=12;html=1;endArrow=blockThin;endFill=1;rounded=0;strokeWidth=2;endSize=4;startSize=4;dashed=0;strokeColor=#000000;fontColor=#000000;exitX=1;exitY=0.5;exitDx=0;exitDy=0;" parent="1" source="4SqLzdmS7a_BjOeYIGlZ-24" target="4SqLzdmS7a_BjOeYIGlZ-17" edge="1">
          <mxGeometry width="100" relative="1" as="geometry">
            <mxPoint x="340" y="280" as="sourcePoint" />
            <mxPoint x="361.0390000000002" y="339.7100700000001" as="targetPoint" />
          </mxGeometry>
        </mxCell>
        <mxCell id="4SqLzdmS7a_BjOeYIGlZ-55" value="Trigger" style="edgeLabel;html=1;align=center;verticalAlign=middle;resizable=0;points=[];fontSize=9;" parent="4SqLzdmS7a_BjOeYIGlZ-20" vertex="1" connectable="0">
          <mxGeometry x="0.0603" y="4" relative="1" as="geometry">
            <mxPoint x="-1" y="-12" as="offset" />
          </mxGeometry>
        </mxCell>
        <mxCell id="4SqLzdmS7a_BjOeYIGlZ-22" value="" style="group" parent="1" vertex="1" connectable="0">
          <mxGeometry x="449.96000000000004" y="296.07" width="59.99999999999994" height="64.99999999999997" as="geometry" />
        </mxCell>
        <mxCell id="4SqLzdmS7a_BjOeYIGlZ-17" value="Function app" style="strokeColor=none;shadow=0;strokeWidth=1;rounded=1;absoluteArcSize=1;arcSize=2;fontSize=9;verticalAlign=bottom;" parent="4SqLzdmS7a_BjOeYIGlZ-22" vertex="1">
          <mxGeometry width="60" height="65" as="geometry" />
        </mxCell>
        <mxCell id="4SqLzdmS7a_BjOeYIGlZ-18" value="" style="aspect=fixed;html=1;points=[];align=center;image;fontSize=12;image=img/lib/azure2/compute/Function_Apps.svg;" parent="4SqLzdmS7a_BjOeYIGlZ-22" vertex="1">
          <mxGeometry x="9.669999999999959" y="14.56000000000003" width="40.65" height="35.87" as="geometry" />
        </mxCell>
        <mxCell id="4SqLzdmS7a_BjOeYIGlZ-27" value="" style="group" parent="1" vertex="1" connectable="0">
          <mxGeometry x="349.96" y="296.07" width="60" height="65" as="geometry" />
        </mxCell>
        <mxCell id="4SqLzdmS7a_BjOeYIGlZ-24" value="Storage Queue" style="strokeColor=none;shadow=0;strokeWidth=1;rounded=1;absoluteArcSize=1;arcSize=2;fontSize=9;verticalAlign=bottom;" parent="4SqLzdmS7a_BjOeYIGlZ-27" vertex="1">
          <mxGeometry width="60" height="65" as="geometry" />
        </mxCell>
        <mxCell id="4SqLzdmS7a_BjOeYIGlZ-26" value="" style="aspect=fixed;html=1;points=[];align=center;image;fontSize=12;image=img/lib/azure2/general/Storage_Queue.svg;shadow=0;strokeColor=#000000;" parent="4SqLzdmS7a_BjOeYIGlZ-27" vertex="1">
          <mxGeometry x="10.5" y="16.659999999999997" width="39" height="31.69" as="geometry" />
        </mxCell>
        <mxCell id="4SqLzdmS7a_BjOeYIGlZ-28" value="" style="edgeStyle=orthogonalEdgeStyle;fontSize=12;html=1;endArrow=blockThin;endFill=1;rounded=0;strokeWidth=2;endSize=4;startSize=4;dashed=0;strokeColor=#000000;fontColor=#000000;exitX=0.5;exitY=0;exitDx=0;exitDy=0;entryX=0;entryY=0.75;entryDx=0;entryDy=0;" parent="1" source="HqxaJNys2O56Uum3NzPm-13" target="4SqLzdmS7a_BjOeYIGlZ-17" edge="1">
          <mxGeometry width="100" relative="1" as="geometry">
            <mxPoint x="370" y="323.6199999999999" as="sourcePoint" />
            <mxPoint x="465" y="338.5833333333335" as="targetPoint" />
            <Array as="points">
              <mxPoint x="255" y="380" />
              <mxPoint x="420" y="380" />
              <mxPoint x="420" y="345" />
            </Array>
          </mxGeometry>
        </mxCell>
        <mxCell id="4SqLzdmS7a_BjOeYIGlZ-34" value="" style="group" parent="1" vertex="1" connectable="0">
          <mxGeometry x="250" y="296.07" width="60" height="65" as="geometry" />
        </mxCell>
        <mxCell id="4SqLzdmS7a_BjOeYIGlZ-32" value="Subscription" style="strokeColor=none;shadow=0;strokeWidth=1;rounded=1;absoluteArcSize=1;arcSize=2;fontSize=9;verticalAlign=bottom;" parent="4SqLzdmS7a_BjOeYIGlZ-34" vertex="1">
          <mxGeometry width="60" height="65" as="geometry" />
        </mxCell>
        <mxCell id="4SqLzdmS7a_BjOeYIGlZ-30" value="" style="aspect=fixed;html=1;points=[];align=center;image;fontSize=12;image=img/lib/azure2/integration/Event_Grid_Subscriptions.svg;" parent="4SqLzdmS7a_BjOeYIGlZ-34" vertex="1">
          <mxGeometry x="10.5" y="15.039999999999964" width="39" height="34.92" as="geometry" />
        </mxCell>
        <mxCell id="4SqLzdmS7a_BjOeYIGlZ-39" value="" style="edgeStyle=orthogonalEdgeStyle;fontSize=12;html=1;endArrow=blockThin;endFill=1;rounded=0;strokeWidth=2;endSize=4;startSize=4;dashed=0;strokeColor=#000000;fontColor=#000000;exitX=1;exitY=0.5;exitDx=0;exitDy=0;entryX=0;entryY=0.5;entryDx=0;entryDy=0;" parent="1" source="4SqLzdmS7a_BjOeYIGlZ-32" target="4SqLzdmS7a_BjOeYIGlZ-24" edge="1">
          <mxGeometry width="100" relative="1" as="geometry">
            <mxPoint x="400" y="338.56999999999994" as="sourcePoint" />
            <mxPoint x="465" y="338.56999999999994" as="targetPoint" />
          </mxGeometry>
        </mxCell>
        <mxCell id="4SqLzdmS7a_BjOeYIGlZ-40" value="Filtered&lt;br&gt;events" style="edgeLabel;html=1;align=center;verticalAlign=middle;resizable=0;points=[];fontSize=10;fontColor=#000000;" parent="4SqLzdmS7a_BjOeYIGlZ-39" vertex="1" connectable="0">
          <mxGeometry x="0.1609" y="-2" relative="1" as="geometry">
            <mxPoint x="-3" y="-20" as="offset" />
          </mxGeometry>
        </mxCell>
        <mxCell id="4SqLzdmS7a_BjOeYIGlZ-46" value="" style="group" parent="1" vertex="1" connectable="0">
          <mxGeometry x="150" y="296.07" width="65" height="79.95999999999998" as="geometry" />
        </mxCell>
        <mxCell id="4SqLzdmS7a_BjOeYIGlZ-43" value="" style="strokeColor=none;shadow=0;strokeWidth=1;rounded=1;absoluteArcSize=1;arcSize=2;fontSize=9;verticalAlign=bottom;container=0;" parent="4SqLzdmS7a_BjOeYIGlZ-46" vertex="1">
          <mxGeometry width="60" height="65" as="geometry" />
        </mxCell>
        <mxCell id="4SqLzdmS7a_BjOeYIGlZ-41" value="" style="aspect=fixed;html=1;points=[];align=center;image;fontSize=12;image=img/lib/azure2/integration/Event_Grid_Topics.svg;" parent="4SqLzdmS7a_BjOeYIGlZ-46" vertex="1">
          <mxGeometry x="10.5" y="15.039999999999964" width="39" height="34.92" as="geometry" />
        </mxCell>
        <mxCell id="4SqLzdmS7a_BjOeYIGlZ-50" value="&lt;font style=&quot;font-size: 9px;&quot;&gt;Event Grid&lt;br&gt;System Topic&lt;br&gt;&lt;/font&gt;" style="text;html=1;strokeColor=none;fillColor=none;align=center;verticalAlign=middle;whiteSpace=wrap;rounded=0;fontSize=9;" parent="4SqLzdmS7a_BjOeYIGlZ-46" vertex="1">
          <mxGeometry x="-5" y="49.95999999999998" width="70" height="30" as="geometry" />
        </mxCell>
        <mxCell id="4SqLzdmS7a_BjOeYIGlZ-52" value="" style="group;verticalAlign=bottom;" parent="1" vertex="1" connectable="0">
          <mxGeometry x="40" y="296.07" width="60" height="65" as="geometry" />
        </mxCell>
        <mxCell id="4SqLzdmS7a_BjOeYIGlZ-48" value="" style="strokeColor=none;shadow=0;strokeWidth=1;rounded=1;absoluteArcSize=1;arcSize=2;fontSize=9;verticalAlign=bottom;container=0;" parent="4SqLzdmS7a_BjOeYIGlZ-52" vertex="1">
          <mxGeometry width="60" height="65" as="geometry" />
        </mxCell>
        <mxCell id="4SqLzdmS7a_BjOeYIGlZ-51" value="" style="shape=image;verticalLabelPosition=bottom;verticalAlign=top;imageAspect=0;aspect=fixed;image=data:image/svg+xml,PHN2ZyB4bWxucz0iaHR0cDovL3d3dy53My5vcmcvMjAwMC9zdmciIGlkPSJmMmYwNDM0OS04YWVlLTQ0MTMtODRjOS1hOTA1MzYxMWIzMTkiIHdpZHRoPSIxOCIgaGVpZ2h0PSIxOCIgdmlld0JveD0iMCAwIDE4IDE4Ij4mI3hhOyAgPGRlZnM+JiN4YTsgICAgPGxpbmVhckdyYWRpZW50IGlkPSJhZDRjNGY5Ni0wOWFhLTRmOTEtYmExMC01Y2I4YWQ1MzBmNzQiIHgxPSI5IiB5MT0iMTUuODMiIHgyPSI5IiB5Mj0iNS43OSIgZ3JhZGllbnRVbml0cz0idXNlclNwYWNlT25Vc2UiPiYjeGE7ICAgICAgPHN0b3Agb2Zmc2V0PSIwIiBzdG9wLWNvbG9yPSIjYjNiM2IzIi8+JiN4YTsgICAgICA8c3RvcCBvZmZzZXQ9IjAuMjYiIHN0b3AtY29sb3I9IiNjMWMxYzEiLz4mI3hhOyAgICAgIDxzdG9wIG9mZnNldD0iMSIgc3RvcC1jb2xvcj0iI2U2ZTZlNiIvPiYjeGE7ICAgIDwvbGluZWFyR3JhZGllbnQ+JiN4YTsgIDwvZGVmcz4mI3hhOyAgPHRpdGxlPkljb24tc3RvcmFnZS04NjwvdGl0bGU+JiN4YTsgIDxwYXRoIGQ9Ik0uNSw1Ljc5aDE3YTAsMCwwLDAsMSwwLDB2OS40OGEuNTcuNTcsMCwwLDEtLjU3LjU3SDEuMDdhLjU3LjU3LDAsMCwxLS41Ny0uNTdWNS43OUEwLDAsMCwwLDEsLjUsNS43OVoiIGZpbGw9InVybCgjYWQ0YzRmOTYtMDlhYS00ZjkxLWJhMTAtNWNiOGFkNTMwZjc0KSIvPiYjeGE7ICA8cGF0aCBkPSJNMS4wNywyLjE3SDE2LjkzYS41Ny41NywwLDAsMSwuNTcuNTdWNS43OWEwLDAsMCwwLDEsMCwwSC41YTAsMCwwLDAsMSwwLDBWMi43M0EuNTcuNTcsMCwwLDEsMS4wNywyLjE3WiIgZmlsbD0iIzM3YzJiMSIvPiYjeGE7ICA8cGF0aCBkPSJNMi44MSw2Ljg5SDE1LjE4YS4yNy4yNywwLDAsMSwuMjYuMjd2MS40YS4yNy4yNywwLDAsMS0uMjYuMjdIMi44MWEuMjcuMjcsMCwwLDEtLjI2LS4yN1Y3LjE2QS4yNy4yNywwLDAsMSwyLjgxLDYuODlaIiBmaWxsPSIjZmZmIi8+JiN4YTsgIDxwYXRoIGQ9Ik0yLjgyLDkuNjhIMTUuMTlhLjI3LjI3LDAsMCwxLC4yNi4yN3YxLjQxYS4yNy4yNywwLDAsMS0uMjYuMjdIMi44MmEuMjcuMjcsMCwwLDEtLjI2LS4yN1YxMEEuMjcuMjcsMCwwLDEsMi44Miw5LjY4WiIgZmlsbD0iIzM3YzJiMSIvPiYjeGE7ICA8cGF0aCBkPSJNMi44MiwxMi41SDE1LjE5YS4yNy4yNywwLDAsMSwuMjYuMjd2MS40MWEuMjcuMjcsMCwwLDEtLjI2LjI3SDIuODJhLjI3LjI3LDAsMCwxLS4yNi0uMjdWMTIuNzdBLjI3LjI3LDAsMCwxLDIuODIsMTIuNVoiIGZpbGw9IiMyNTgyNzciLz4mI3hhOzwvc3ZnPg==" parent="4SqLzdmS7a_BjOeYIGlZ-52" vertex="1">
          <mxGeometry x="11.5" y="14" width="37" height="37" as="geometry" />
        </mxCell>
        <mxCell id="4SqLzdmS7a_BjOeYIGlZ-53" value="&lt;font style=&quot;font-size: 9px;&quot;&gt;Source Data&lt;br&gt;Storage Account&lt;br&gt;&lt;/font&gt;" style="text;html=1;strokeColor=none;fillColor=none;align=center;verticalAlign=middle;whiteSpace=wrap;rounded=0;fontSize=9;" parent="1" vertex="1">
          <mxGeometry x="35" y="346.03" width="70" height="30" as="geometry" />
        </mxCell>
        <mxCell id="4SqLzdmS7a_BjOeYIGlZ-57" value="" style="group;verticalAlign=bottom;" parent="1" vertex="1" connectable="0">
          <mxGeometry x="45" y="424" width="60" height="65" as="geometry" />
        </mxCell>
        <mxCell id="4SqLzdmS7a_BjOeYIGlZ-58" value="" style="strokeColor=none;shadow=0;strokeWidth=1;rounded=1;absoluteArcSize=1;arcSize=2;fontSize=9;verticalAlign=bottom;container=0;" parent="4SqLzdmS7a_BjOeYIGlZ-57" vertex="1">
          <mxGeometry width="60" height="65" as="geometry" />
        </mxCell>
        <mxCell id="4SqLzdmS7a_BjOeYIGlZ-59" value="" style="shape=image;verticalLabelPosition=bottom;verticalAlign=top;imageAspect=0;aspect=fixed;image=data:image/svg+xml,PHN2ZyB4bWxucz0iaHR0cDovL3d3dy53My5vcmcvMjAwMC9zdmciIGlkPSJmMmYwNDM0OS04YWVlLTQ0MTMtODRjOS1hOTA1MzYxMWIzMTkiIHdpZHRoPSIxOCIgaGVpZ2h0PSIxOCIgdmlld0JveD0iMCAwIDE4IDE4Ij4mI3hhOyAgPGRlZnM+JiN4YTsgICAgPGxpbmVhckdyYWRpZW50IGlkPSJhZDRjNGY5Ni0wOWFhLTRmOTEtYmExMC01Y2I4YWQ1MzBmNzQiIHgxPSI5IiB5MT0iMTUuODMiIHgyPSI5IiB5Mj0iNS43OSIgZ3JhZGllbnRVbml0cz0idXNlclNwYWNlT25Vc2UiPiYjeGE7ICAgICAgPHN0b3Agb2Zmc2V0PSIwIiBzdG9wLWNvbG9yPSIjYjNiM2IzIi8+JiN4YTsgICAgICA8c3RvcCBvZmZzZXQ9IjAuMjYiIHN0b3AtY29sb3I9IiNjMWMxYzEiLz4mI3hhOyAgICAgIDxzdG9wIG9mZnNldD0iMSIgc3RvcC1jb2xvcj0iI2U2ZTZlNiIvPiYjeGE7ICAgIDwvbGluZWFyR3JhZGllbnQ+JiN4YTsgIDwvZGVmcz4mI3hhOyAgPHRpdGxlPkljb24tc3RvcmFnZS04NjwvdGl0bGU+JiN4YTsgIDxwYXRoIGQ9Ik0uNSw1Ljc5aDE3YTAsMCwwLDAsMSwwLDB2OS40OGEuNTcuNTcsMCwwLDEtLjU3LjU3SDEuMDdhLjU3LjU3LDAsMCwxLS41Ny0uNTdWNS43OUEwLDAsMCwwLDEsLjUsNS43OVoiIGZpbGw9InVybCgjYWQ0YzRmOTYtMDlhYS00ZjkxLWJhMTAtNWNiOGFkNTMwZjc0KSIvPiYjeGE7ICA8cGF0aCBkPSJNMS4wNywyLjE3SDE2LjkzYS41Ny41NywwLDAsMSwuNTcuNTdWNS43OWEwLDAsMCwwLDEsMCwwSC41YTAsMCwwLDAsMSwwLDBWMi43M0EuNTcuNTcsMCwwLDEsMS4wNywyLjE3WiIgZmlsbD0iIzM3YzJiMSIvPiYjeGE7ICA8cGF0aCBkPSJNMi44MSw2Ljg5SDE1LjE4YS4yNy4yNywwLDAsMSwuMjYuMjd2MS40YS4yNy4yNywwLDAsMS0uMjYuMjdIMi44MWEuMjcuMjcsMCwwLDEtLjI2LS4yN1Y3LjE2QS4yNy4yNywwLDAsMSwyLjgxLDYuODlaIiBmaWxsPSIjZmZmIi8+JiN4YTsgIDxwYXRoIGQ9Ik0yLjgyLDkuNjhIMTUuMTlhLjI3LjI3LDAsMCwxLC4yNi4yN3YxLjQxYS4yNy4yNywwLDAsMS0uMjYuMjdIMi44MmEuMjcuMjcsMCwwLDEtLjI2LS4yN1YxMEEuMjcuMjcsMCwwLDEsMi44Miw5LjY4WiIgZmlsbD0iIzM3YzJiMSIvPiYjeGE7ICA8cGF0aCBkPSJNMi44MiwxMi41SDE1LjE5YS4yNy4yNywwLDAsMSwuMjYuMjd2MS40MWEuMjcuMjcsMCwwLDEtLjI2LjI3SDIuODJhLjI3LjI3LDAsMCwxLS4yNi0uMjdWMTIuNzdBLjI3LjI3LDAsMCwxLDIuODIsMTIuNVoiIGZpbGw9IiMyNTgyNzciLz4mI3hhOzwvc3ZnPg==" parent="4SqLzdmS7a_BjOeYIGlZ-57" vertex="1">
          <mxGeometry x="11.5" y="14" width="37" height="37" as="geometry" />
        </mxCell>
        <mxCell id="4SqLzdmS7a_BjOeYIGlZ-60" value="&lt;div style=&quot;text-align: left;&quot;&gt;&lt;span style=&quot;background-color: initial;&quot;&gt;Notifier&lt;/span&gt;&lt;/div&gt;&lt;font style=&quot;font-size: 9px;&quot;&gt;&lt;div style=&quot;text-align: left;&quot;&gt;&lt;span style=&quot;background-color: initial;&quot;&gt;Storage Account&lt;/span&gt;&lt;/div&gt;&lt;/font&gt;" style="text;html=1;strokeColor=none;fillColor=none;align=center;verticalAlign=middle;whiteSpace=wrap;rounded=0;fontSize=9;" parent="1" vertex="1">
          <mxGeometry x="100" y="441.5" width="70" height="30" as="geometry" />
        </mxCell>
        <mxCell id="4SqLzdmS7a_BjOeYIGlZ-63" value="" style="aspect=fixed;html=1;points=[];align=center;image;fontSize=12;image=img/lib/azure2/compute/Function_Apps.svg;" parent="1" vertex="1">
          <mxGeometry x="424.66999999999996" y="562.0600000000001" width="40.65" height="35.87" as="geometry" />
        </mxCell>
        <mxCell id="4SqLzdmS7a_BjOeYIGlZ-65" value="&lt;font style=&quot;font-size: 9px;&quot;&gt;Virtual Network&lt;/font&gt;" style="verticalLabelPosition=bottom;html=1;verticalAlign=top;align=center;strokeColor=none;fillColor=#00BEF2;shape=mxgraph.azure.virtual_network;pointerEvents=1;shadow=0;dashed=1;fontSize=11;aspect=fixed;" parent="1" vertex="1">
          <mxGeometry x="460.00000000000006" y="720" width="40" height="22" as="geometry" />
        </mxCell>
        <mxCell id="4SqLzdmS7a_BjOeYIGlZ-66" value="&lt;font style=&quot;font-size: 9px;&quot;&gt;NAT Gateway&lt;/font&gt;" style="aspect=fixed;html=1;points=[];align=center;image;fontSize=12;image=img/lib/azure2/networking/NAT.svg;shadow=0;dashed=1;strokeColor=#000000;fillColor=#FFFFFF;" parent="1" vertex="1">
          <mxGeometry x="417.96000000000004" y="648" width="32" height="32" as="geometry" />
        </mxCell>
        <mxCell id="4SqLzdmS7a_BjOeYIGlZ-67" value="&lt;font style=&quot;font-size: 9px;&quot;&gt;Public IP Address&lt;/font&gt;" style="aspect=fixed;html=1;points=[];align=center;image;fontSize=12;image=img/lib/azure2/networking/Public_IP_Addresses.svg;shadow=0;dashed=1;strokeColor=#000000;fillColor=#FFFFFF;" parent="1" vertex="1">
          <mxGeometry x="499.96" y="648" width="40" height="32" as="geometry" />
        </mxCell>
        <mxCell id="4SqLzdmS7a_BjOeYIGlZ-70" value="" style="group" parent="1" vertex="1" connectable="0">
          <mxGeometry x="270" y="547" width="65" height="78.35000000000002" as="geometry" />
        </mxCell>
        <mxCell id="4SqLzdmS7a_BjOeYIGlZ-71" value="" style="strokeColor=none;shadow=0;strokeWidth=1;rounded=1;absoluteArcSize=1;arcSize=2;fontSize=9;verticalAlign=bottom;" parent="4SqLzdmS7a_BjOeYIGlZ-70" vertex="1">
          <mxGeometry width="60" height="65" as="geometry" />
        </mxCell>
        <mxCell id="4SqLzdmS7a_BjOeYIGlZ-72" value="" style="aspect=fixed;html=1;points=[];align=center;image;fontSize=12;image=img/lib/azure2/general/Storage_Queue.svg;shadow=0;strokeColor=#000000;" parent="4SqLzdmS7a_BjOeYIGlZ-70" vertex="1">
          <mxGeometry x="10.5" y="16.659999999999997" width="39" height="31.69" as="geometry" />
        </mxCell>
        <mxCell id="4SqLzdmS7a_BjOeYIGlZ-73" value="&lt;font style=&quot;font-size: 9px;&quot;&gt;Notifier trigger&lt;br&gt;Storage Queue&lt;br&gt;&lt;/font&gt;" style="text;html=1;strokeColor=none;fillColor=none;align=center;verticalAlign=middle;whiteSpace=wrap;rounded=0;fontSize=9;" parent="4SqLzdmS7a_BjOeYIGlZ-70" vertex="1">
          <mxGeometry x="-5" y="48.35000000000002" width="70" height="30" as="geometry" />
        </mxCell>
        <mxCell id="4SqLzdmS7a_BjOeYIGlZ-74" value="&lt;div style=&quot;text-align: center&quot;&gt;&lt;/div&gt;&lt;font style=&quot;font-size: 11px;&quot;&gt;&lt;div&gt;&lt;b&gt;&lt;font style=&quot;font-size: 11px;&quot;&gt;Event message example:&lt;/font&gt;&lt;/b&gt;&lt;br&gt;&lt;span style=&quot;&quot;&gt;[{&lt;/span&gt;&lt;span style=&quot;font-size: 10px; background-color: initial;&quot;&gt;...&lt;/span&gt;&lt;/div&gt;&lt;div&gt;&lt;span style=&quot;font-size: 10px&quot;&gt;&amp;nbsp; &quot;eventType&quot;: &quot;Microsoft.Storage.BlobCreated&quot;,&lt;/span&gt;&lt;br&gt;&lt;/div&gt;&lt;div style=&quot;font-size: 10px&quot;&gt;&amp;nbsp; &quot;data&quot;: {&amp;nbsp;&lt;span style=&quot;background-color: initial;&quot;&gt;...&lt;/span&gt;&lt;/div&gt;&lt;div style=&quot;font-size: 10px&quot;&gt;&amp;nbsp; &amp;nbsp; &quot;url&quot;: &quot;https://examplestorageaccount. blob.core.windows.net/examplecontainer/new-file.csv&quot;&lt;/div&gt;&lt;div style=&quot;font-size: 10px&quot;&gt;&amp;nbsp; }&lt;/div&gt;&lt;div style=&quot;font-size: 10px&quot;&gt;&amp;nbsp; ...&amp;nbsp;&lt;span style=&quot;background-color: initial;&quot;&gt;}]&lt;/span&gt;&lt;/div&gt;&lt;/font&gt;" style="rounded=0;whiteSpace=wrap;html=1;labelBackgroundColor=none;strokeColor=#666666;strokeWidth=1;fillColor=#f5f5f5;align=left;verticalAlign=top;fontColor=#333333;spacingLeft=4;" parent="1" vertex="1">
          <mxGeometry x="409.96" y="180" width="430.04" height="100" as="geometry" />
        </mxCell>
        <mxCell id="4SqLzdmS7a_BjOeYIGlZ-75" value="Key Vault" style="sketch=0;aspect=fixed;html=1;points=[];align=center;image;fontSize=12;image=img/lib/mscae/Key_Vaults.svg;labelBackgroundColor=none;" parent="1" vertex="1">
          <mxGeometry x="278.5" y="695" width="48" height="50" as="geometry" />
        </mxCell>
        <mxCell id="4SqLzdmS7a_BjOeYIGlZ-76" value="Application Insights" style="aspect=fixed;html=1;points=[];align=center;image;fontSize=12;image=img/lib/azure2/devops/Application_Insights.svg;labelBackgroundColor=none;" parent="1" vertex="1">
          <mxGeometry x="190" y="695" width="34.92" height="50" as="geometry" />
        </mxCell>
        <mxCell id="4SqLzdmS7a_BjOeYIGlZ-77" value="App Service&lt;br&gt;Plan" style="aspect=fixed;html=1;points=[];align=center;image;fontSize=12;image=img/lib/azure2/app_services/App_Service_Plans.svg;labelBackgroundColor=none;" parent="1" vertex="1">
          <mxGeometry x="79.99999999999989" y="695" width="50" height="50" as="geometry" />
        </mxCell>
        <mxCell id="4SqLzdmS7a_BjOeYIGlZ-78" value="&lt;div style=&quot;text-align: center&quot;&gt;&lt;/div&gt;&lt;font style=&quot;font-size: 11px;&quot;&gt;&lt;span&gt;&lt;b&gt;Event subscription filters:&lt;/b&gt;&lt;br&gt;&lt;ul&gt;&lt;li&gt;&lt;font style=&quot;font-size: 11px;&quot;&gt;&lt;span&gt;subjectBeginsWith:&lt;br&gt;&lt;/span&gt;&lt;/font&gt;&#39;/blobServices/default/containers/&amp;lt;container&amp;gt;/blobs/&amp;lt;path&amp;gt;&#39;&lt;/li&gt;&lt;li&gt;&lt;font style=&quot;font-size: 11px;&quot;&gt;&lt;span&gt;includedEventTypes: [&lt;/span&gt;&lt;span&gt;&amp;nbsp;&#39;Microsoft.Storage.BlobCreated&#39;&lt;/span&gt;&lt;span&gt;&amp;nbsp;]&lt;/span&gt;&lt;/font&gt;&lt;/li&gt;&lt;li&gt;&lt;font style=&quot;font-size: 11px;&quot;&gt;&lt;span&gt;advancedFilters:&lt;/span&gt;&lt;span&gt;&amp;nbsp;&#39;data.ContentLength&#39; &amp;gt;&amp;nbsp;&lt;/span&gt;&lt;span&gt;0&lt;/span&gt;&lt;/font&gt;&lt;/li&gt;&lt;/ul&gt;&lt;/span&gt;&lt;br&gt;&lt;br&gt;&lt;/font&gt;" style="rounded=0;whiteSpace=wrap;html=1;labelBackgroundColor=none;strokeColor=#666666;strokeWidth=1;fillColor=#f5f5f5;align=left;verticalAlign=top;fontColor=#333333;spacingLeft=4;" parent="1" vertex="1">
          <mxGeometry x="40" y="180" width="350" height="100" as="geometry" />
        </mxCell>
      </root>
    </mxGraphModel>
  </diagram>
</mxfile>
